<svg width="192" height="307" xmlns="http://www.w3.org/2000/svg" xmlns:xlink="http://www.w3.org/1999/xlink" xml:space="preserve" overflow="hidden"><defs><clipPath id="clip0"><rect x="2232" y="1278" width="192" height="307"/></clipPath><clipPath id="clip1"><rect x="2232" y="1278" width="192" height="307"/></clipPath></defs><g clip-path="url(#clip0)" transform="translate(-2232 -1278)"><g clip-path="url(#clip1)"><path d="M2344.46 1494.55C2344.54 1494.07 2344.59 1493.79 2344.63 1493.67 2347.4 1481.42 2351.55 1469.67 2357.1 1458.4 2361.6 1449.22 2366.75 1440.58 2372.52 1432.45 2380.35 1421.43 2389.12 1411.24 2398.6 1401.56 2402.32 1397.78 2404.61 1395.44 2405.49 1394.53 2405.97 1394.03 2406.66 1393.51 2407.38 1393.62 2408.24 1393.74 2408.74 1394.26 2408.9 1395.17 2409.16 1396.67 2409.21 1398.61 2409.01 1400.96 2409 1401.29 2408.94 1402.79 2408.85 1405.47 2408.84 1406.06 2408.78 1406.83 2408.68 1407.8 2408.57 1408.83 2408.56 1409.94 2408.46 1410.91 2408.24 1412.94 2408.05 1414.44 2407.94 1415.46 2407.56 1418.9 2407.04 1422.4 2406.4 1425.96 2404.89 1434.38 2402.53 1442.53 2399.34 1450.41 2395.73 1459.31 2391.4 1467.66 2385.91 1475.64 2381.47 1482.13 2375.99 1487.97 2369.95 1493 2366.48 1495.88 2362.92 1498.57 2359.12 1501.02 2355.9 1503.1 2352.9 1504.81 2349.47 1506.23 2347.94 1506.88 2346.39 1507.54 2344.86 1508.24 2344.72 1508.29 2344.64 1508.4 2344.64 1508.56 2344.68 1509.82 2344.67 1511.15 2344.62 1512.53 2344.47 1515.9 2344.38 1518.49 2344.38 1520.25 2344.38 1522.29 2344.11 1524.54 2344.1 1526.63 2344.08 1527.42 2344.03 1528.25 2343.94 1529.13 2343.78 1530.74 2343.83 1532.13 2343.63 1533.63 2343.46 1534.88 2343.51 1536.28 2343.34 1537.54 2343.15 1538.78 2343.19 1539.77 2343.02 1541 2342.86 1542.04 2342.88 1543.14 2342.7 1544.21 2342.64 1544.52 2342.6 1544.88 2342.59 1545.28 2342.54 1546.34 2342.32 1547.35 2342.27 1548.34 2342.24 1548.65 2342.18 1549.3 2342.06 1550.31 2340.88 1559.79 2339.94 1567.23 2339.24 1572.66 2338.91 1575.32 2338.48 1578.02 2337.98 1580.77 2337.9 1581.23 2338.03 1581.82 2337.95 1582.33 2337.79 1583.16 2337.34 1583.85 2336.63 1584.39 2335.14 1585.51 2333.42 1584.93 2332 1583.91 2331.14 1583.26 2330.14 1582.52 2329.96 1581.36 2329.87 1580.73 2329.98 1579.86 2330.08 1579.14 2331.24 1571.73 2332.2 1565.13 2332.96 1559.31 2333 1559.05 2333.16 1557.82 2333.47 1555.6 2333.7 1553.79 2333.96 1551.5 2334.28 1548.7 2334.38 1547.79 2334.46 1546.94 2334.51 1546.18 2334.55 1545.77 2334.62 1545.11 2334.72 1544.21 2334.83 1543.3 2334.83 1542.44 2334.96 1541.59 2335.14 1540.34 2335.1 1539.15 2335.28 1537.95 2335.36 1537.28 2335.42 1536.65 2335.44 1536.07 2335.47 1534.62 2335.71 1533.39 2335.74 1531.86 2335.78 1530.39 2336.03 1528.81 2336.04 1527.26 2336.06 1526.37 2336.1 1525.61 2336.15 1524.98 2336.38 1522.73 2336.32 1519.92 2336.47 1517.53 2336.58 1516.08 2336.63 1514.88 2336.63 1513.97 2336.7 1507.6 2336.7 1500.59 2336.64 1492.93 2336.63 1492.25 2336.58 1491.17 2336.47 1489.71 2336.35 1487.78 2336.4 1485.76 2336.19 1483.72 2336.03 1482.27 2336.06 1480.5 2335.87 1478.9 2335.78 1478.26 2335.74 1477.81 2335.74 1477.52 2335.74 1476.43 2335.55 1475.42 2335.46 1474.34 2335.4 1473.55 2335.36 1473.1 2335.35 1472.97 2334.88 1468.25 2334.16 1463.08 2333.18 1457.42 2332.67 1454.46 2332.06 1451.47 2331.35 1448.47 2330.98 1446.92 2330.54 1445.4 2330 1443.92 2329.87 1443.6 2329.95 1443.33 2329.86 1443.05 2329.84 1442.99 2329.8 1442.94 2329.74 1442.91 2326.09 1441.67 2323.15 1438.81 2320.94 1435.79 2317.65 1431.29 2314.77 1426.45 2312.27 1421.27 2312.19 1421.1 2312.06 1421.04 2311.87 1421.14 2308.22 1422.76 2304.85 1424.63 2300.75 1425.34 2296.64 1426.07 2292.78 1424.91 2289.74 1421.97 2288.65 1420.92 2287.68 1419.81 2286.84 1418.65 2284.48 1415.35 2282.24 1411.68 2280.12 1407.65 2278.72 1404.93 2277.61 1402.23 2276.81 1399.47 2276.64 1398.87 2276.49 1398.33 2276.42 1397.83 2276.41 1397.73 2276.33 1397.67 2276.22 1397.7 2275.45 1397.89 2274.61 1397.9 2273.7 1397.75 2269.82 1397.21 2266.24 1395.13 2263.53 1392.28 2261.01 1389.6 2259.05 1386.5 2256.37 1383.99 2254.87 1382.59 2253.23 1381.29 2251.47 1380.13 2247.89 1377.77 2245.28 1376.08 2242.39 1373.59 2238.23 1370 2235.21 1365.33 2234.33 1359.85 2233.22 1352.92 2234.87 1346.09 2239.83 1341.06 2242.97 1337.86 2246.76 1335.75 2251.15 1334.7 2251.27 1334.68 2251.31 1334.6 2251.24 1334.49 2249.28 1331.11 2247.95 1327.42 2247.21 1323.44 2245.69 1314.98 2248.25 1306.58 2254.87 1301.03 2257.23 1299.05 2259.99 1297.67 2263.13 1296.88 2265.69 1296.24 2268.92 1296.24 2271.37 1296.82 2273.53 1297.3 2275.48 1298.01 2277.26 1298.95 2278.18 1299.43 2279.57 1300.23 2281.45 1301.37 2283.25 1302.45 2285.32 1303.5 2287.45 1303.57 2288.7 1303.61 2289.93 1303.46 2291.13 1303.12 2294.04 1302.29 2297.15 1300.83 2299.94 1299.91 2302.89 1298.9 2305.87 1298.6 2308.9 1298.96 2312.97 1299.43 2316.65 1300.83 2319.95 1303.15 2320.46 1303.51 2320.9 1303.89 2321.29 1304.3 2321.38 1304.38 2321.43 1304.37 2321.49 1304.28 2325.82 1295.57 2332.62 1287.48 2341.39 1282.99 2344.74 1281.28 2348.2 1280.3 2351.79 1280.05 2353.33 1279.93 2354.99 1280.04 2356.73 1280.33 2362.92 1281.4 2367.49 1284.71 2370.48 1290.23 2370.76 1290.75 2371.41 1292.11 2372.45 1294.39 2372.8 1295.11 2373.16 1295.78 2373.53 1296.35 2374.76 1298.26 2376.57 1299.39 2378.64 1300.19 2379.72 1300.61 2381.69 1301.32 2384.57 1302.32 2391.14 1304.62 2397.33 1309.15 2398.4 1316.6 2398.7 1318.66 2398.5 1320.64 2397.81 1322.57 2397.78 1322.7 2397.81 1322.8 2397.97 1322.81 2403.09 1323.77 2407.86 1325.53 2412.26 1328.1 2417.35 1331.05 2422.18 1335.8 2423.62 1341.71 2423.81 1342.4 2423.86 1343.25 2423.94 1343.86 2424.02 1344.32 2424.02 1344.85 2423.94 1345.47 2423.86 1346.25 2423.78 1346.78 2423.71 1347.08 2422.58 1352.26 2418.22 1355.84 2414.02 1358.65 2411.81 1360.14 2410.02 1361.41 2408.66 1362.45 2405.17 1365.13 2402.6 1368.53 2400.94 1372.6 2400.25 1374.32 2399.57 1376 2398.9 1377.69 2397.86 1380.28 2396.61 1382.75 2395.13 1385.14 2391.02 1391.75 2385.16 1395.83 2377.57 1397.33 2376.79 1397.49 2375.4 1397.73 2374.21 1397.74 2372.16 1397.78 2370.93 1397.78 2370.56 1397.73 2369.55 1397.59 2368.56 1397.41 2367.61 1397.11 2367.49 1397.08 2367.41 1397.14 2367.4 1397.26 2367.15 1400.3 2366.45 1403.19 2365.32 1405.94 2363.52 1410.24 2360.45 1413.58 2356.2 1415.53 2353.25 1416.87 2350.03 1417.51 2346.72 1417.9 2346.56 1417.92 2346.51 1418 2346.55 1418.16 2346.78 1419.26 2346.86 1420.2 2346.76 1421 2346.72 1421.38 2346.66 1422.29 2346.54 1423.72 2346.44 1425.07 2346.18 1426.49 2345.9 1427.9 2345.23 1431.16 2344.06 1434.1 2342.4 1436.78 2340.94 1439.16 2338.82 1441.41 2336.24 1442.51 2336.14 1442.56 2336.1 1442.63 2336.14 1442.75 2336.43 1443.66 2336.74 1444.76 2337.06 1446.05 2339.39 1455.21 2341.36 1464.23 2342.56 1473.37 2342.78 1475.04 2342.92 1476.13 2342.99 1476.64 2343.15 1477.77 2343.15 1478.54 2343.31 1479.47 2343.36 1479.82 2343.44 1480.52 2343.51 1481.56 2343.58 1482.58 2343.78 1483.41 2343.78 1484.36 2343.79 1485.66 2344.08 1487.09 2344.1 1488.42 2344.11 1489.55 2344.19 1490.83 2344.35 1492.28 2344.4 1492.92 2344.42 1493.58 2344.35 1494.29 2344.35 1494.37 2344.35 1494.45 2344.38 1494.55 2344.4 1494.69 2344.43 1494.69 2344.46 1494.55ZM2321.87 1361.1C2321.85 1361.25 2321.85 1361.33 2321.86 1361.41 2321.9 1361.63 2321.97 1361.63 2322.06 1361.42 2322.14 1361.21 2322.22 1361.05 2322.27 1360.95 2323.93 1357.99 2325.85 1355.14 2328.03 1352.38 2332.14 1347.21 2336.75 1342.52 2341.91 1338.35 2351.76 1330.36 2363.45 1325.11 2375.93 1322.86 2376.41 1322.78 2377.76 1322.58 2379.99 1322.26 2380.83 1322.15 2381.71 1322.14 2382.67 1322.03 2384.83 1321.78 2386.61 1321.85 2389.6 1321.87 2390.44 1321.87 2391.33 1321.93 2392.3 1322.03 2392.73 1322.09 2393.64 1322.17 2395.01 1322.27 2395.17 1322.3 2395.28 1322.22 2395.33 1322.06 2395.66 1321.07 2395.97 1320.16 2395.97 1319.01 2395.97 1317.81 2395.94 1317.16 2395.94 1317.07 2394.82 1310.03 2388.83 1306.39 2382.67 1304.32 2380.67 1303.66 2378.96 1303.04 2377.55 1302.49 2375.92 1301.85 2374.55 1301.05 2373.43 1300.07 2371.36 1298.3 2370.23 1295.74 2369.16 1293.29 2367.76 1290.03 2365.63 1287.05 2362.55 1285.18 2360.38 1283.84 2358.02 1283.01 2355.47 1282.69 2354.24 1282.53 2352.27 1282.51 2351.1 1282.63 2348.91 1282.89 2346.78 1283.42 2344.68 1284.28 2336.19 1287.72 2329.29 1295.32 2324.91 1303.23 2320.62 1311 2317.97 1319.42 2316.83 1328.11 2316.43 1331.14 2316.21 1333.46 2316.14 1335.12 2316.06 1337.19 2316.06 1340.26 2316.14 1344.33 2316.17 1345.68 2316.41 1346.8 2316.41 1348.01 2316.42 1348.66 2316.49 1349.43 2316.63 1350.37 2316.7 1350.83 2316.7 1351.35 2316.75 1351.78 2317.01 1354.03 2317.33 1356.33 2317.74 1358.69 2318.07 1360.76 2318.51 1362.6 2319.03 1364.22 2319.09 1364.37 2319.14 1364.47 2319.21 1364.53 2319.3 1364.59 2319.39 1364.59 2319.47 1364.57 2319.57 1364.51 2319.61 1364.43 2319.61 1364.33 2319.61 1362.44 2319.5 1360.33 2319.77 1358.38 2319.87 1357.66 2319.95 1356.99 2320.03 1356.44 2320.49 1352.74 2321.43 1348.94 2322.86 1345.07 2323.3 1343.86 2323.79 1342.68 2324.38 1341.51 2325.75 1338.77 2327.23 1336.35 2328.79 1334.19 2331.51 1330.42 2334.75 1326.45 2338.48 1322.27 2339.1 1321.6 2340.27 1321.31 2340.7 1322.37 2340.99 1323.08 2340.47 1323.81 2340 1324.35 2336.22 1328.74 2332.81 1332.76 2329.71 1337.31 2328.57 1339.01 2327.41 1341.1 2326.54 1342.87 2325.74 1344.49 2325.02 1346.33 2324.38 1348.39 2323.1 1352.47 2322.29 1356.64 2321.91 1360.82 2321.9 1360.95 2321.9 1361.04 2321.87 1361.1ZM2314.61 1354.5 2314.61 1354.51C2314.38 1352.76 2314.17 1350.93 2313.97 1349.06 2313.91 1348.62 2313.87 1348.04 2313.85 1347.33 2313.75 1345.83 2313.55 1344.29 2313.54 1342.98L2313.54 1337.41C2313.55 1336.44 2313.59 1335.39 2313.7 1334.25 2313.85 1332.48 2313.93 1331.42 2313.95 1331.11 2314.07 1329.19 2314.46 1326.55 2315.09 1323.19 2316.14 1317.61 2317.81 1312.26 2320.1 1307.15 2320.15 1307.05 2320.14 1306.95 2320.09 1306.85 2319.79 1306.42 2319.5 1306.02 2319.07 1305.67 2316.63 1303.71 2313.31 1302.33 2310.23 1301.69 2309.82 1301.6 2309.47 1301.54 2309.21 1301.53 2308.3 1301.46 2307.42 1301.28 2306.6 1301.3 2304.37 1301.33 2302.2 1301.76 2300.06 1302.55 2299.02 1302.92 2297.28 1303.61 2294.82 1304.57 2293.64 1305.05 2292.12 1305.49 2290.28 1305.91 2289.65 1306.04 2289.01 1306.12 2288.3 1306.12 2287.34 1306.14 2286.68 1306.12 2286.33 1306.04 2284.58 1305.76 2282.93 1305.13 2281.34 1304.22 2277.37 1301.91 2275.11 1300.4 2271.36 1299.39 2270.25 1299.08 2268.81 1299 2267.67 1298.89 2267.27 1298.85 2266.52 1298.9 2265.43 1299.05 2261.55 1299.53 2257.93 1301.42 2255.19 1304.15 2252.39 1306.94 2250.57 1310.36 2249.72 1314.37 2249.53 1315.31 2249.46 1316.25 2249.32 1317.49 2249.23 1318.15 2249.23 1318.95 2249.29 1319.94 2249.67 1324.93 2251.08 1329.55 2253.55 1333.85 2253.72 1334.15 2253.88 1334.14 2254.19 1334.1 2254.63 1334.06 2255.16 1333.99 2255.79 1333.9 2257.45 1333.67 2258.89 1333.78 2261.12 1333.78 2262.47 1333.78 2263.85 1334.03 2265.29 1334.14 2265.88 1334.17 2267.04 1334.37 2268.8 1334.73 2270.08 1334.97 2271.24 1335.24 2272.27 1335.51 2279.57 1337.52 2286.56 1340.42 2293.22 1344.27 2301.28 1348.9 2308.33 1355.05 2313.59 1362.61 2314.33 1363.67 2314.91 1364.59 2315.39 1365.4 2315.41 1365.45 2315.46 1365.48 2315.5 1365.48 2315.67 1365.48 2315.71 1365.34 2315.66 1365.13 2313.91 1359.43 2311.69 1353.64 2309 1347.77 2307.13 1343.78 2304.68 1339.82 2302.17 1336.6 2298.89 1332.39 2295.24 1328.53 2291.48 1324.73 2291.13 1324.35 2290.65 1323.82 2290.62 1323.43 2290.57 1321.79 2292.09 1321.82 2292.97 1322.68 2296.2 1325.81 2299.25 1329.11 2302.14 1332.51 2306.2 1337.31 2309.49 1342.58 2312.03 1348.31 2312.65 1349.73 2313.31 1351.28 2313.98 1352.96 2314.13 1353.32 2314.33 1353.99 2314.61 1354.47L2314.61 1354.5ZM2356.74 1356.16C2356.91 1357.12 2356.19 1357.62 2355.34 1357.56 2354.4 1357.51 2352.96 1357.42 2351.03 1357.31 2349.87 1357.24 2349 1357.31 2347.68 1357.39 2346.78 1357.42 2345.95 1357.51 2345.18 1357.66 2339.55 1358.62 2334.23 1360.58 2329.29 1363.55 2327.47 1364.64 2325.81 1365.92 2324.26 1367.41 2324.21 1367.47 2324.17 1367.54 2324.17 1367.63 2324.17 1367.74 2324.22 1367.78 2324.31 1367.74 2325.75 1367.31 2327.14 1367.01 2328.49 1366.83 2329.26 1366.74 2329.91 1366.67 2330.49 1366.6 2332.3 1366.39 2334.03 1366.46 2335.94 1366.47 2336.78 1366.47 2337.65 1366.63 2338.67 1366.74 2339.61 1366.83 2340.27 1366.92 2340.73 1366.98 2346.75 1367.92 2352.56 1369.92 2357.59 1373.49 2362.14 1376.74 2365.11 1380.99 2366.48 1386.26 2366.8 1387.55 2367.03 1388.65 2367.14 1389.6 2367.24 1390.5 2367.34 1391.15 2367.4 1391.59 2367.55 1392.5 2367.47 1393.23 2367.52 1394.17 2367.52 1394.33 2367.62 1394.43 2367.78 1394.49 2368.8 1394.86 2369.91 1395.16 2371.12 1395.18 2373.12 1395.22 2374.48 1395.22 2375.18 1395.13 2377.53 1394.9 2379.92 1394.25 2382.33 1393.2 2386.07 1391.59 2389.15 1389.13 2391.57 1385.85 2393.39 1383.38 2394.92 1380.65 2396.16 1377.65 2396.72 1376.33 2397.53 1374.32 2398.61 1371.61 2400.41 1367.21 2403.17 1363.52 2406.88 1360.63 2408.45 1359.4 2410.29 1358.09 2412.42 1356.67 2416.42 1354.02 2420.68 1350.71 2421.42 1345.63 2421.52 1345.04 2421.52 1344.44 2421.44 1343.84 2420.68 1337.96 2416.05 1333.26 2411.24 1330.44 2406.71 1327.78 2401.81 1326.01 2396.53 1325.14 2394.17 1324.74 2392.47 1324.53 2391.4 1324.47 2389.92 1324.39 2387.45 1324.39 2383.97 1324.44 2382.99 1324.46 2382.23 1324.62 2381.32 1324.69 2380.48 1324.77 2379.81 1324.83 2379.33 1324.9 2365.1 1326.91 2352.11 1332.78 2341.27 1342.19 2335.9 1346.85 2331.16 1352.09 2327.04 1357.89 2325.38 1360.2 2323.96 1362.64 2322.76 1365.16 2322.7 1365.26 2322.68 1365.33 2322.68 1365.35 2322.66 1365.61 2322.76 1365.65 2322.94 1365.48 2324.48 1363.98 2326.14 1362.67 2327.96 1361.53 2333.22 1358.25 2338.89 1356.1 2344.97 1355.11 2346.25 1354.93 2347.53 1354.82 2348.79 1354.79 2350.14 1354.79 2351.5 1354.82 2352.89 1354.85 2353.23 1354.87 2353.7 1354.9 2354.23 1354.98 2355.34 1355.1 2356.54 1355.06 2356.74 1356.16ZM2285.01 1358.69C2284.94 1357.63 2285.74 1357.42 2286.62 1357.42 2287.3 1357.4 2288.22 1357.47 2289.4 1357.6 2291.72 1357.87 2294.02 1358.43 2296.58 1359.1 2302.09 1360.51 2307.35 1362.6 2312.33 1365.33 2312.62 1365.49 2312.67 1365.44 2312.47 1365.17 2306.89 1357.04 2299.25 1350.43 2290.66 1345.72 2283.89 1342.04 2276.64 1339.04 2269.27 1337.41 2268.21 1337.17 2267.09 1336.98 2265.91 1336.79 2264.23 1336.56 2263.09 1336.42 2262.51 1336.39 2261.8 1336.34 2259.95 1336.31 2256.97 1336.35 2256.11 1336.36 2255.32 1336.46 2254.6 1336.62 2253.72 1336.83 2252.84 1336.9 2251.99 1337.11 2244.31 1338.92 2238.04 1344.51 2236.76 1352.49 2236.47 1354.47 2236.39 1355.85 2236.58 1357.67 2236.79 1359.71 2237.22 1361.54 2237.83 1363.17 2240.47 1369.99 2246.83 1374.1 2252.75 1377.93 2255.52 1379.73 2257.99 1381.83 2260.16 1384.25 2261.4 1385.63 2263.32 1388.25 2264.84 1389.97 2267.31 1392.77 2270.61 1394.79 2274.31 1395.29 2274.87 1395.37 2275.21 1395.34 2275.83 1395.32 2275.93 1395.29 2275.96 1395.26 2275.93 1395.17 2275.88 1394.97 2275.85 1394.78 2275.84 1394.57 2275.83 1393.15 2275.8 1392.1 2275.8 1391.37 2275.8 1390.31 2275.89 1389.26 2276.09 1388.21 2277.82 1377.91 2285.22 1369.98 2295.56 1368.24 2296.68 1368.06 2297.96 1367.96 2299.4 1367.96 2301.34 1367.94 2302.77 1367.96 2303.68 1368.02 2306.66 1368.26 2309.81 1368.77 2313.07 1369.62 2313.18 1369.63 2313.26 1369.6 2313.26 1369.47 2313.34 1368.67 2312.86 1368.51 2312.14 1368.12 2305.31 1364.31 2298.06 1361.65 2290.4 1360.14 2288.97 1359.85 2287.69 1359.77 2286.06 1359.65 2285.4 1359.6 2285.06 1359.28 2285.01 1358.69ZM2327.2 1391.27C2326.76 1391.11 2326.51 1390.68 2326.44 1390.25 2325.79 1386.42 2324.42 1382.59 2322.8 1379 2321.17 1375.42 2320.3 1373.47 2320.17 1373.19 2320.11 1373.06 2320.03 1373.03 2319.93 1373.09 2319.15 1373.38 2318.38 1373.54 2317.59 1373.58 2317.15 1373.59 2316.78 1373.67 2316.49 1373.81 2315.67 1374.21 2315.03 1374.8 2314.57 1375.6 2313.31 1377.75 2312.73 1380.1 2312.78 1382.67 2312.81 1383.69 2312.54 1384.5 2311.31 1384.29 2310.09 1384.08 2310.43 1381.74 2310.46 1380.8 2310.54 1378.66 2311.34 1376.47 2312.42 1374.6 2312.9 1373.76 2313.49 1373.09 2314.14 1372.58 2314.33 1372.46 2314.3 1372.36 2314.09 1372.31 2311.25 1371.53 2308.37 1370.97 2305.43 1370.65 2304.58 1370.54 2303.63 1370.54 2302.73 1370.49 2301.87 1370.43 2301.21 1370.41 2300.73 1370.42 2298.89 1370.43 2297.43 1370.53 2296.35 1370.69 2287.41 1371.97 2280.7 1378.68 2278.78 1387.47 2278.76 1387.62 2278.72 1387.83 2278.68 1388.11 2278.6 1388.65 2278.45 1389.17 2278.41 1389.71 2278.38 1390.66 2278.34 1391.3 2278.3 1391.65 2278.22 1392.53 2278.34 1393.24 2278.4 1394.19 2278.41 1394.83 2278.5 1395.48 2278.61 1396.08 2279.9 1402.74 2283.34 1408.72 2287.02 1414.44 2289.02 1417.55 2291.53 1421.16 2295.14 1422.48 2296.15 1422.82 2297.27 1423.01 2298.49 1423.01 2302.23 1422.96 2305.65 1421.19 2308.97 1419.65 2312.63 1417.95 2316.62 1416.69 2320.65 1416.26 2322.19 1416.1 2323.34 1415.91 2324.78 1415.94 2325.82 1415.94 2327.44 1415.81 2328.58 1415.83 2332.51 1415.89 2336.04 1415.94 2340.08 1415.78 2340.1 1415.78 2341.06 1415.74 2342.98 1415.67 2345.1 1415.58 2347.34 1415.31 2349.7 1414.9 2355.6 1413.85 2360.35 1410.97 2362.83 1405.31 2363.68 1403.41 2364.29 1401.29 2364.68 1399.01 2364.84 1398.01 2364.93 1396.84 2364.95 1395.5 2364.96 1393.68 2364.96 1392.5 2364.91 1392.01 2364.79 1390.56 2364.53 1389.1 2364.2 1387.6 2363.13 1382.9 2360.67 1379.11 2356.93 1376.19 2354.67 1374.44 2352.2 1373.03 2349.52 1371.97 2346.48 1370.78 2343.42 1369.95 2340.32 1369.5 2339.82 1369.42 2338.7 1369.28 2336.96 1369.08 2336.42 1369.01 2334.72 1369.01 2331.87 1369.04 2330.59 1369.07 2329.44 1369.28 2328 1369.46 2327.07 1369.58 2325.66 1369.94 2323.79 1370.57 2323.15 1370.78 2322.71 1371.32 2322.25 1371.76 2322.17 1371.85 2322.14 1371.96 2322.19 1372.08 2324.83 1377.61 2327.76 1383.26 2328.84 1389.34 2329.04 1390.5 2328.56 1391.75 2327.2 1391.27ZM2406.58 1399.15C2406.58 1399.09 2406.56 1399.07 2406.54 1399.03 2406.49 1398.99 2406.48 1398.99 2406.44 1399.04 2405.69 1400.47 2405.14 1401.58 2404.77 1402.39 2402.88 1406.53 2400.3 1412.16 2397.04 1419.28 2396.29 1420.9 2395.73 1422.06 2395.4 1422.77 2389.14 1435.87 2382.27 1448.38 2374.76 1460.35 2367.03 1472.67 2359.71 1483.81 2351.62 1496.52 2350 1499.08 2348.56 1501.51 2346.92 1504.34 2346.82 1504.55 2346.87 1504.6 2347.07 1504.51 2348.62 1503.86 2349.92 1503.27 2351.04 1502.74 2352.36 1502.13 2354.14 1501.13 2356.4 1499.74 2360.47 1497.22 2364.27 1494.39 2367.97 1491.34 2372.51 1487.62 2376.61 1483.49 2380.29 1478.95 2381.16 1477.87 2381.95 1476.85 2382.64 1475.89 2387.24 1469.48 2391.29 1462.39 2394.81 1454.56 2399.29 1444.61 2402.38 1434.61 2404.09 1424.58 2404.58 1421.62 2405 1418.78 2405.33 1416.08 2405.38 1415.63 2405.53 1414.4 2405.76 1412.35 2405.86 1411.45 2405.96 1410.61 2406.01 1409.83 2406.1 1408.55 2406.29 1407.06 2406.32 1405.5 2406.32 1404.97 2406.33 1404.37 2406.4 1403.67 2406.53 1402.17 2406.58 1400.67 2406.58 1399.15ZM2402.53 1401.28C2402.53 1401.24 2402.5 1401.22 2402.48 1401.24 2402.4 1401.26 2402.26 1401.38 2402.06 1401.61 2401.84 1401.88 2401.7 1402.03 2401.69 1402.03 2392.98 1410.82 2384.83 1420.09 2377.33 1430.1 2370.37 1439.47 2364.31 1449.39 2359.17 1459.89 2355.71 1466.99 2352.83 1474.2 2350.54 1481.52 2348.94 1486.65 2347.51 1491.96 2346.3 1497.47 2345.95 1499.11 2345.59 1500.71 2345.27 1502.31 2345.26 1502.36 2345.27 1502.42 2345.32 1502.43L2345.38 1502.46C2345.39 1502.47 2345.42 1502.46 2345.42 1502.43 2345.55 1502.08 2345.71 1501.73 2345.91 1501.4 2347.74 1498.14 2350.03 1494.34 2352.79 1489.99 2354.99 1486.52 2359.61 1479.31 2366.67 1468.36 2370.43 1462.55 2373.15 1458.26 2374.83 1455.48 2381.2 1444.98 2387.06 1434.21 2392.41 1423.15 2392.9 1422.13 2393.46 1420.98 2394.05 1419.66 2398.86 1409.19 2401.57 1403.35 2402.12 1402.09 2402.22 1401.91 2402.48 1401.54 2402.53 1401.28ZM2314.5 1420.17C2314.38 1420.2 2314.34 1420.29 2314.39 1420.41 2316.46 1424.43 2318.77 1428.32 2321.34 1432.06 2322.75 1434.11 2324.31 1435.99 2326.03 1437.69 2327.42 1439.04 2329.22 1440.23 2331.19 1440.65 2336.32 1441.73 2340.15 1436.43 2341.84 1432.4 2343.31 1428.86 2343.98 1425.23 2344.22 1421.46 2344.27 1420.65 2344.26 1419.65 2344.14 1418.46 2344.11 1418.27 2344.03 1418.19 2343.84 1418.19 2342.02 1418.22 2339.98 1418.27 2337.74 1418.36 2335.14 1418.46 2330.43 1418.24 2326.81 1418.38 2324.63 1418.46 2323.25 1418.53 2322.66 1418.58 2319.87 1418.83 2317.15 1419.34 2314.5 1420.17ZM2333.63 1443.27 2332.46 1443.27C2332.31 1443.27 2332.26 1443.34 2332.31 1443.48 2332.72 1444.65 2333.11 1445.9 2333.44 1447.24 2335.26 1454.2 2336.59 1461.49 2337.44 1469.1 2337.44 1469.1 2337.48 1469.36 2337.55 1469.89 2337.7 1470.97 2337.71 1471.84 2337.9 1473.05 2338.03 1474.02 2338 1475.05 2338.16 1476.06 2338.35 1477.29 2338.28 1478.64 2338.44 1479.77 2338.67 1481.52 2338.59 1482.93 2338.78 1484.79 2338.86 1485.65 2338.91 1486.61 2338.91 1487.67 2338.92 1490.09 2339.2 1493.09 2339.2 1495.56 2339.24 1501.49 2339.24 1506.74 2339.2 1511.31 2339.19 1514.08 2338.91 1517.41 2338.91 1520.04 2338.92 1522.24 2338.62 1524.49 2338.6 1526.68 2338.6 1528.12 2338.34 1529.68 2338.32 1531.22 2338.3 1532.57 2338.03 1533.95 2338.02 1535.29 2338 1536.04 2337.95 1536.69 2337.86 1537.22 2337.68 1538.47 2337.75 1539.66 2337.55 1540.88 2337.47 1541.41 2337.42 1541.99 2337.39 1542.61 2337.36 1543.61 2337.11 1544.78 2337.1 1545.79 2337.06 1546.61 2336.84 1547.48 2336.8 1548.27 2336.79 1548.95 2336.72 1549.57 2336.62 1550.15 2336.46 1551.04 2336.48 1551.87 2336.31 1552.82 2336.19 1553.48 2336.19 1554.36 2336.04 1555.14 2336 1555.36 2335.98 1555.68 2335.92 1556.13 2335.63 1558.52 2335.26 1561.35 2334.8 1564.62 2334.18 1568.99 2333.44 1573.84 2332.62 1579.22 2332.52 1579.84 2332.48 1580.25 2332.48 1580.43 2332.54 1580.96 2333.15 1581.47 2333.54 1581.8 2333.68 1581.93 2333.82 1581.93 2333.96 1581.82 2334.19 1581.66 2334.51 1581.5 2334.91 1581.36 2335.15 1581.27 2335.3 1581.16 2335.34 1581.02 2335.36 1580.8 2335.47 1580.26 2335.63 1579.38 2336.11 1576.86 2336.67 1573.02 2337.32 1567.82 2338.44 1558.97 2339.23 1552.72 2339.67 1549.03 2339.71 1548.69 2339.72 1548.07 2339.79 1547.67 2339.98 1546.61 2339.99 1545.59 2340.15 1544.57 2340.3 1543.56 2340.27 1542.7 2340.4 1541.86 2340.59 1540.57 2340.59 1539.38 2340.75 1538.13 2340.94 1536.75 2340.88 1535.56 2341.06 1534.28 2341.23 1533 2341.22 1531.3 2341.36 1530.07 2341.55 1528.28 2341.48 1526.62 2341.66 1524.81 2341.75 1523.86 2341.8 1522.54 2341.82 1520.83 2341.84 1519.52 2341.9 1518.23 2341.96 1516.97 2342.06 1515.42 2342.11 1514.04 2342.11 1512.81 2342.14 1510.13 2342.14 1505.88 2342.11 1500.04 2342.11 1498.08 2341.82 1495.33 2341.82 1493.35 2341.82 1492.24 2341.76 1491.18 2341.66 1490.15 2341.52 1488.8 2341.55 1486.87 2341.32 1485.38 2341.22 1484.74 2341.23 1484.04 2341.16 1483.28 2341.15 1483.22 2341.02 1481.95 2340.75 1479.45 2340.32 1475.43 2339.84 1471.79 2339.31 1468.49 2339.08 1467.1 2338.86 1465.83 2338.64 1464.69 2337.5 1458.61 2336.14 1452.26 2334.55 1445.62 2334.39 1444.98 2334.22 1444.28 2333.98 1443.54 2333.92 1443.37 2333.8 1443.27 2333.63 1443.27Z" fill="#d4d4d4" fill-rule="evenodd" fill-opacity="1"/></g></g></svg>
