<svg width="229" height="298" xmlns="http://www.w3.org/2000/svg" xmlns:xlink="http://www.w3.org/1999/xlink" xml:space="preserve" overflow="hidden"><g transform="translate(-2479 -1035)"><g><path d="M2691.07 1101.18C2691.06 1101.18 2691.06 1101.16 2691.05 1101.16L2691.02 1101.16C2690.97 1101.15 2690.91 1101.12 2690.85 1101.11 2681.64 1099 2672.48 1104.14 2669.54 1113.05 2654.42 1158.77 2637.51 1185.51 2616.54 1197.01L2614.52 1074.11C2614.18 1054.19 2597.73 1038 2577.86 1038L2577.74 1038 2577.72 1038 2577.68 1038C2557.55 1038.09 2541.2 1054.52 2541.2 1074.69L2541.2 1234.42C2531.43 1209.02 2522.76 1177.66 2515.4 1140.95 2513.55 1131.71 2504.61 1125.62 2495.4 1127.21 2495.37 1127.21 2495.35 1127.21 2495.32 1127.22 2495.27 1127.24 2495.21 1127.22 2495.16 1127.24 2486.29 1128.91 2480.22 1136.95 2481.08 1145.94 2487.97 1219.45 2507.65 1264.27 2541.2 1282.98L2541.2 1302.86C2538.95 1302.41 2536.6 1302.62 2534.5 1303.72L2527.88 1307.17C2524.91 1308.72 2522.91 1311.63 2522.5 1314.96L2522.06 1318.66C2521.71 1321.54 2522.62 1324.44 2524.54 1326.62 2526.47 1328.79 2529.22 1330.04 2532.13 1330.04L2548.05 1330.04C2551.11 1330.04 2553.97 1328.69 2555.9 1326.31 2556.35 1325.75 2556.73 1325.15 2557.06 1324.53L2559.35 1324.53C2559.56 1324.63 2559.81 1324.69 2560.06 1324.69 2560.31 1324.69 2560.54 1324.63 2560.77 1324.53L2588.05 1324.53C2588.39 1325 2588.77 1325.46 2589.17 1325.87 2591.94 1328.78 2595.84 1330.48 2599.84 1330.55L2619.61 1330.87C2621.22 1332.21 2623.27 1333 2625.47 1333L2637.97 1333C2640.47 1333 2642.91 1331.97 2644.65 1330.16L2645.34 1329.44C2647.48 1327.23 2648.38 1324.1 2647.75 1321.07L2647.32 1319.06C2646.96 1317.36 2646.15 1315.81 2644.94 1314.56L2640.54 1309.95C2638.28 1307.59 2634.97 1306.63 2631.82 1307.33L2627.93 1302.14C2626.4 1300.1 2624.37 1298.47 2622.04 1297.42L2618.15 1295.67 2617.22 1239.38C2665.99 1220.04 2694.65 1181.68 2704.74 1122.07 2706.35 1112.54 2700.35 1103.44 2691.08 1101.18ZM2681.91 1150.38 2680.82 1144.47C2680.65 1143.53 2679.76 1142.94 2678.83 1143.09 2677.89 1143.26 2677.28 1144.16 2677.45 1145.09L2679.5 1156.21C2674.46 1167.66 2667.48 1179.32 2658.3 1190.04L2658.86 1185.47C2658.98 1184.53 2658.31 1183.68 2657.36 1183.57 2656.45 1183.46 2655.57 1184.12 2655.46 1185.07L2654.39 1193.78C2654.36 1193.98 2654.39 1194.17 2654.43 1194.36 2644.36 1205.1 2631.93 1214.67 2616.94 1221.85L2616.79 1212.9C2622.19 1210.05 2627.09 1206.76 2631.62 1203.21 2631.72 1203.16 2631.78 1203.09 2631.85 1203.03 2643.01 1194.24 2651.74 1183.69 2658.69 1172.7L2667.05 1169.62C2667.93 1169.3 2668.39 1168.31 2668.07 1167.42 2667.73 1166.54 2666.76 1166.08 2665.87 1166.41L2661.54 1168C2669.98 1153.58 2675.71 1138.84 2680.33 1126.88 2683.71 1118.11 2686.54 1110.8 2689.31 1106.7 2690.53 1118.05 2688.28 1133.79 2681.91 1150.38ZM2672.78 1114.12C2674.84 1107.9 2680.66 1103.98 2686.99 1104.1 2684.49 1107.52 2682.15 1112.86 2679.46 1119.68L2678.36 1114.04C2678.17 1113.1 2677.26 1112.51 2676.35 1112.69 2675.43 1112.88 2674.83 1113.77 2675 1114.7L2676.98 1124.93C2677.02 1125.14 2677.09 1125.32 2677.19 1125.48 2677.17 1125.54 2677.15 1125.59 2677.13 1125.65 2674.57 1132.26 2671.67 1139.74 2668.16 1147.54L2667.22 1141.75C2667.08 1140.81 2666.18 1140.17 2665.26 1140.33 2664.32 1140.48 2663.69 1141.36 2663.84 1142.3L2665.52 1152.7C2665.54 1152.81 2665.59 1152.89 2665.63 1152.99 2658.32 1168.18 2648.47 1184.05 2634.08 1196.74L2634.97 1193.89C2635.25 1192.98 2634.74 1192.03 2633.84 1191.75 2632.93 1191.45 2631.98 1191.97 2631.7 1192.87L2629.29 1200.68C2625.43 1203.7 2621.24 1206.47 2616.74 1208.96L2616.61 1200.86C2639.12 1189.41 2657 1161.82 2672.78 1114.12ZM2611.08 1074.15 2614.69 1294.48C2611.77 1293.85 2608.69 1294.06 2605.9 1295.19L2600.41 1297.37 2600.05 1273.15C2600.36 1273.05 2600.65 1272.9 2600.86 1272.64L2606.57 1265.71C2607.17 1264.99 2607.06 1263.9 2606.33 1263.3 2605.6 1262.69 2604.52 1262.79 2603.92 1263.54L2599.97 1268.34 2599.61 1244.5C2599.65 1244.44 2599.71 1244.42 2599.75 1244.35L2607.49 1232.13C2608 1231.33 2607.76 1230.27 2606.95 1229.76 2606.17 1229.26 2605.11 1229.49 2604.59 1230.29L2599.5 1238.33 2598.76 1189.38 2606.25 1177.96C2606.77 1177.16 2606.54 1176.11 2605.75 1175.58 2604.96 1175.06 2603.9 1175.27 2603.38 1176.08L2598.68 1183.27 2597.73 1119.92C2597.96 1119.83 2598.18 1119.69 2598.36 1119.49L2606.1 1110.93C2606.73 1110.23 2606.67 1109.15 2605.98 1108.5 2605.28 1107.87 2604.2 1107.91 2603.56 1108.63L2597.67 1115.14 2597.59 1109.7C2597.4 1105.18 2597.29 1100.77 2597.17 1096.5 2596.9 1086.26 2596.64 1076.81 2595.6 1068.55 2595.97 1068.43 2596.3 1068.23 2596.52 1067.88L2603.03 1057.28C2603.53 1056.47 2603.27 1055.42 2602.47 1054.92 2601.68 1054.42 2600.61 1054.67 2600.12 1055.48L2594.94 1063.91C2593.32 1054.65 2590.36 1047.2 2584.75 1042.2 2599.53 1045.34 2610.82 1058.47 2611.08 1074.15ZM2575.85 1157.05 2570.85 1149.54C2570.31 1148.75 2569.25 1148.53 2568.46 1149.06 2567.67 1149.58 2567.46 1150.65 2567.98 1151.44L2575.32 1162.44C2575.45 1162.64 2575.64 1162.78 2575.82 1162.91L2575.58 1260.3 2569.95 1252.97C2569.37 1252.22 2568.29 1252.09 2567.54 1252.65 2566.79 1253.22 2566.66 1254.31 2567.22 1255.06L2575.36 1265.66C2575.41 1265.73 2575.49 1265.75 2575.54 1265.82L2575.41 1321.12 2561.73 1321.12 2562.04 1095.31 2562.12 1090.88C2562.6 1062.63 2562.82 1051.07 2576.11 1042.72ZM2530.49 1245.01C2529.57 1245.12 2528.75 1245.72 2528.73 1246.67L2528.57 1251.17C2517.82 1235.08 2508.65 1212.46 2502.4 1191.07 2502.48 1190.96 2502.6 1190.89 2502.67 1190.77L2504.96 1186.03C2505.37 1185.17 2505.01 1184.15 2504.15 1183.74 2503.3 1183.32 2502.28 1183.68 2501.87 1184.54L2501.04 1186.27C2495.87 1167.43 2493.07 1150.04 2493.59 1139.62 2493.86 1134.42 2494.85 1132.11 2495.64 1131.07 2499.3 1134.29 2501.99 1147.07 2505.08 1161.72 2505.77 1165.03 2506.51 1168.5 2507.29 1172.08L2502.63 1168.49C2501.88 1167.91 2500.81 1168.04 2500.22 1168.79 2499.64 1169.54 2499.78 1170.62 2500.53 1171.21L2507.85 1176.86C2508.01 1176.98 2508.2 1176.98 2508.37 1177.03 2511.53 1190.94 2515.57 1206.3 2521.62 1221.42L2518.31 1219.42C2517.51 1218.94 2516.45 1219.19 2515.96 1220 2515.48 1220.8 2515.73 1221.86 2516.53 1222.35L2523.84 1226.78C2528.38 1237.17 2533.95 1247.36 2540.92 1256.75 2540.99 1256.83 2541.07 1256.88 2541.13 1256.95L2541.13 1266.02C2537.91 1263.25 2534.76 1259.75 2531.74 1255.7 2531.75 1255.62 2531.79 1255.56 2531.79 1255.48L2532.1 1246.77C2532.18 1245.83 2531.44 1245.04 2530.49 1245.01ZM2512.04 1141.63C2520.15 1182.15 2529.86 1216.27 2540.91 1243.07 2540.97 1243.24 2541.08 1243.37 2541.2 1243.51L2541.2 1251.1C2538.34 1246.96 2535.73 1242.7 2533.34 1238.32L2533.34 1238.31 2534.42 1232.51C2534.59 1231.57 2533.97 1230.68 2533.05 1230.51 2532.13 1230.34 2531.23 1230.95 2531.06 1231.88L2530.79 1233.36C2526.48 1224.71 2522.96 1215.78 2520.04 1206.93 2520.19 1206.74 2520.31 1206.52 2520.36 1206.28L2522.2 1198.19C2522.41 1197.27 2521.82 1196.34 2520.91 1196.14 2519.97 1195.93 2519.08 1196.52 2518.86 1197.43L2518.11 1200.76C2513.84 1186.6 2510.94 1172.85 2508.45 1160.99 2508.13 1159.44 2507.81 1157.95 2507.5 1156.49L2510.38 1149.21C2510.73 1148.33 2510.3 1147.34 2509.41 1146.99 2508.56 1146.64 2507.54 1147.07 2507.19 1147.95L2506.19 1150.49C2504.13 1141.25 2502.2 1134.37 2499.58 1130.48 2505.56 1131.04 2510.79 1135.43 2512.04 1141.63ZM2484.48 1145.64C2483.96 1140.08 2486.74 1135 2491.29 1132.33 2490.7 1134.22 2490.31 1136.57 2490.18 1139.45 2490.07 1141.67 2490.11 1144.2 2490.27 1146.94L2488.43 1144.63C2487.84 1143.9 2486.75 1143.78 2486.02 1144.37 2485.28 1144.96 2485.16 1146.04 2485.75 1146.78L2490.64 1152.89C2490.68 1152.94 2490.73 1152.95 2490.78 1152.99 2492.3 1166.73 2496.35 1184.64 2502.27 1202.55L2499.68 1200.21C2498.99 1199.58 2497.9 1199.64 2497.26 1200.33 2496.63 1201.03 2496.69 1202.12 2497.38 1202.76L2503.79 1208.57C2503.99 1208.75 2504.22 1208.86 2504.46 1208.92 2507.66 1217.9 2511.31 1226.74 2515.34 1234.93L2512.64 1233.46C2511.81 1233 2510.77 1233.3 2510.31 1234.14 2509.86 1234.97 2510.16 1236.02 2510.99 1236.47L2517.4 1239.97C2517.59 1240.08 2517.78 1240.09 2517.98 1240.12 2524.89 1253.15 2532.76 1264.08 2541.19 1270.45L2541.19 1278.98C2509.72 1260.3 2491.15 1216.68 2484.48 1145.64ZM2553.25 1324.15C2551.96 1325.71 2550.07 1326.61 2548.05 1326.61L2532.13 1326.61C2530.2 1326.61 2528.38 1325.78 2527.09 1324.35 2525.82 1322.91 2525.22 1321 2525.45 1319.08L2525.89 1315.38C2526.16 1313.17 2527.49 1311.24 2529.46 1310.22L2536.07 1306.78C2537.05 1306.27 2538.11 1306.02 2539.18 1306.02 2540.49 1306.02 2541.8 1306.41 2542.94 1307.17L2551.55 1313C2553.02 1313.99 2554.02 1315.5 2554.37 1317.26L2554.64 1318.57C2555.04 1320.54 2554.53 1322.58 2553.25 1324.15ZM2558 1317.89 2557.73 1316.58C2557.21 1313.94 2555.69 1311.66 2553.46 1310.14L2544.84 1304.32C2544.76 1304.26 2544.68 1304.25 2544.6 1304.19L2544.6 1074.69C2544.6 1058.69 2555.95 1045.3 2570.99 1042.13 2562.75 1048.75 2560.23 1057.54 2559.31 1071.33L2553.27 1063.45C2552.7 1062.7 2551.61 1062.56 2550.86 1063.13 2550.11 1063.7 2549.98 1064.79 2550.54 1065.54L2558.68 1076.14C2558.79 1076.27 2558.93 1076.35 2559.05 1076.44 2558.88 1080.77 2558.8 1085.53 2558.71 1090.81L2558.63 1095.26 2558.59 1124.27 2553.38 1115.01C2552.91 1114.18 2551.87 1113.88 2551.05 1114.35 2550.22 1114.81 2549.93 1115.87 2550.39 1116.68L2557.73 1129.72C2557.93 1130.07 2558.24 1130.28 2558.59 1130.42L2558.52 1178.25 2553.33 1170.32C2552.8 1169.52 2551.75 1169.3 2550.96 1169.82 2550.17 1170.35 2549.94 1171.41 2550.46 1172.2L2558.2 1184.01C2558.28 1184.14 2558.4 1184.2 2558.51 1184.3L2558.44 1236.49 2552.48 1228.13C2551.93 1227.36 2550.86 1227.19 2550.09 1227.72 2549.31 1228.27 2549.14 1229.35 2549.69 1230.12L2557.82 1241.54C2557.98 1241.77 2558.2 1241.94 2558.42 1242.06L2558.36 1294.04 2551.63 1285.15C2551.05 1284.39 2549.97 1284.26 2549.23 1284.82 2548.49 1285.41 2548.35 1286.48 2548.92 1287.23L2557.88 1299.05C2558.01 1299.22 2558.2 1299.34 2558.37 1299.46L2558.34 1321.1 2558.06 1321.1C2558.2 1320.05 2558.21 1318.97 2558 1317.89ZM2578.88 1321.1 2578.93 1297.76C2579.09 1297.64 2579.26 1297.54 2579.38 1297.35L2587.12 1285.93C2587.66 1285.15 2587.44 1284.08 2586.67 1283.55 2585.89 1283.02 2584.82 1283.22 2584.28 1284L2578.94 1291.88 2579.16 1206.73 2587.7 1198.58C2588.38 1197.92 2588.41 1196.84 2587.75 1196.16 2587.09 1195.46 2586.01 1195.45 2585.33 1196.1L2579.16 1201.98 2579.4 1104.54 2587.11 1093.15C2587.64 1092.38 2587.43 1091.31 2586.65 1090.77 2585.88 1090.25 2584.8 1090.45 2584.27 1091.22L2579.41 1098.39 2579.54 1042.53C2592.53 1050.53 2593.06 1070.99 2593.75 1096.53 2593.85 1100.82 2593.97 1105.24 2594.15 1109.73L2596.98 1298.68 2595 1299.47C2590.59 1301.22 2587.21 1305 2585.98 1309.6L2585.49 1311.45C2584.62 1314.66 2584.87 1318.05 2586.09 1321.08ZM2633.83 1310.52C2635.4 1310.52 2636.94 1311.15 2638.06 1312.33L2642.48 1316.95C2643.23 1317.73 2643.75 1318.72 2643.98 1319.79L2644.39 1321.79C2644.79 1323.69 2644.23 1325.66 2642.88 1327.05L2642.18 1327.78C2641.08 1328.92 2639.55 1329.57 2637.97 1329.57L2625.47 1329.57C2623.11 1329.57 2621.01 1328.18 2620.09 1326.01 2619.3 1324.13 2619.51 1322.03 2620.67 1320.37L2624.72 1314.57C2625.41 1313.57 2626.39 1312.82 2627.54 1312.41L2631.85 1310.85C2632.51 1310.63 2633.18 1310.52 2633.83 1310.52ZM2625.18 1304.19 2628.38 1308.47 2626.39 1309.19C2624.57 1309.85 2623.02 1311.03 2621.92 1312.62L2617.88 1318.43C2616.03 1321.05 2615.68 1324.4 2616.94 1327.38 2616.95 1327.39 2616.95 1327.4 2616.97 1327.43L2599.89 1327.15C2596.78 1327.09 2593.79 1325.78 2591.64 1323.53 2588.83 1320.58 2587.75 1316.32 2588.81 1312.38L2589.3 1310.53C2590.27 1306.98 2592.88 1304.05 2596.29 1302.71L2607.17 1298.39C2610.09 1297.24 2613.41 1297.32 2616.27 1298.61L2620.63 1300.56C2622.43 1301.35 2624.01 1302.61 2625.18 1304.19ZM2701.37 1121.48C2691.57 1179.31 2663.98 1216.65 2617.17 1235.67L2617.01 1225.63C2624.27 1222.26 2630.99 1218.34 2637.18 1213.99L2647.11 1212.96C2648.04 1212.86 2648.73 1212.02 2648.63 1211.08 2648.54 1210.14 2647.67 1209.45 2646.76 1209.55L2642.53 1209.99C2654.63 1200.52 2664.45 1189.39 2672.12 1177.7L2679.5 1176.11C2680.42 1175.91 2681.01 1175 2680.81 1174.07 2680.61 1173.15 2679.68 1172.57 2678.77 1172.76L2674.69 1173.64C2682.15 1161.38 2687.29 1148.68 2690.22 1136.74L2696.44 1132.45C2697.22 1131.92 2697.42 1130.84 2696.88 1130.07 2696.35 1129.28 2695.26 1129.09 2694.5 1129.62L2691.31 1131.82C2693.24 1122.08 2693.64 1113.01 2692.6 1105.3 2698.77 1107.94 2702.53 1114.58 2701.37 1121.48Z" fill="black" fill-rule="evenodd" fill-opacity="1"/></g></g></svg>
