<?xml version="1.0" encoding="utf-8"?>
<!-- Generator: Adobe Illustrator 27.0.0, SVG Export Plug-In . SVG Version: 6.00 Build 0)  -->
<svg version="1.1" id="圖層_1" xmlns="http://www.w3.org/2000/svg" xmlns:xlink="http://www.w3.org/1999/xlink" x="0px" y="0px"
	 viewBox="0 0 67.4 92.6" style="enable-background:new 0 0 67.4 92.6;" xml:space="preserve">
<path d="M67.1,34.9c-0.5-0.2-13.5-5.9-21.3,1.8c-1.3,1.2-2.5,2.5-3.6,4c1.2-5.5,1.5-11.1,0.8-16.7l0,0c1.8-0.3,3.1-2,3-3.8
	c-0.2-1.9-1.8-3.3-3.6-3.2c-1.9,0-3.4,1.5-3.5,3.4c-0.1,1.9,1.3,3.5,3.1,3.7c0,0,0,0.1,0,0.1c2.3,17.4-6.2,31.2-8.5,34.5
	c-1.1-10.3-3.8-20.4-7.9-30h0c4.3-0.8,7.8-6.9,8-7.2c6.1-9.1-1.8-20.8-2.2-21.3l0,0C31.3,0,31-0.1,30.8,0c-0.2,0.1-0.3,0.3-0.3,0.6
	c0,0.1,2.3,9.2-1.9,15.7c-3.3,5-3.7,9-3.7,10.8c-2.1-4.7-4.5-9.3-7.2-13.7c-0.1-0.1-0.1-0.2-0.2-0.2c1.7-1.1,2.2-3.2,1.2-4.9
	c-1-1.7-3.1-2.4-4.9-1.5c-1.8,0.9-2.5,3-1.7,4.8c0.8,1.8,2.9,2.7,4.7,2c0,0.1,0,0.3,0.1,0.4c4.3,7,7.8,14.5,10.5,22.2
	c-1.5-1.9-3.5-3.5-5.6-4.6c-8.2-4.9-17.5-0.3-17.9-0.1c-0.2,0.1-0.3,0.3-0.3,0.5c0,0.2,0.2,0.4,0.5,0.4c0.1,0,7.5,0.5,13.4,4
	c2.6,1.7,5.6,2.6,8.7,2.7c0.7,0,1.3-0.1,1.9-0.2c0.1,0,0.1-0.1,0.2-0.1c3.4,10.6,5,21.6,4.7,32.7c-2.6-6.9-10.9-25.6-26.9-33.2l0,0
	c0,0-0.1,0-0.1,0c0.1-0.2,0.1-0.5,0.1-0.7c0-1.1-0.8-2.1-1.9-2.3c-1.1-0.2-2.2,0.4-2.7,1.5c-0.4,1.1,0,2.3,1,2.9
	c1,0.6,2.2,0.4,3-0.4c0,0.1,0.1,0.1,0.2,0.1c6.8,3.2,12.1,8.5,16.3,14c-1.1-0.9-2.2-1.6-3.4-2.3C10.3,46,0.6,53.8,0.2,54.2h0
	c-0.2,0.2-0.2,0.4-0.1,0.6C0.2,55,0.4,55.1,0.7,55c0.1,0,7.7-2.6,13.6,0.8v0c2.6,1.7,5.6,2.6,8.7,2.7c0.7,0,1.3-0.1,1.9-0.2
	c0.2,0,0.3-0.2,0.3-0.3c3.2,5.1,5.7,10.5,7.7,16.2c-0.2,6-1.3,12-3.1,17.8c-0.1,0.3,0,0.5,0.3,0.6c0.3,0.1,0.5,0,0.6-0.3
	c1.8-5.8,2.9-11.8,3.1-17.8c0.1-0.1,0.1-0.3,0.1-0.4l0-0.1v0c0.3-4.6,0.2-9.3-0.2-13.9c0,0,0.1,0,0.1-0.1c3-4.2,5.3-8.8,6.9-13.7
	c0,0,0.1,0,0.1,0h0c0.4,0,5.3-0.1,11.1-5.7c5.6-5.4,14.9-4.8,15-4.8v0c0.2,0,0.5-0.1,0.5-0.4C67.4,35.2,67.3,35,67.1,34.9L67.1,34.9
	z M39.8,20.3C39.9,19,41,18,42.3,18c0.1,0,0.1,0,0.2,0c1,0.1,1.9,0.8,2.2,1.7c0.3,1,0,2-0.8,2.7c-0.8,0.7-1.9,0.8-2.8,0.3
	C40.3,22.3,39.8,21.3,39.8,20.3L39.8,20.3z M13.1,10.3c0-1,0.6-1.9,1.6-2.3c0.9-0.4,2-0.2,2.7,0.5c0.7,0.7,0.9,1.8,0.5,2.7
	c-0.4,0.9-1.3,1.6-2.3,1.6C14.2,12.8,13.1,11.7,13.1,10.3L13.1,10.3z M21.3,32.4c0,0,4.3,2.2,5.8,5.1c-1.4-1-10.5-6.9-18.9-6.5
	C11.6,30.2,16.7,29.7,21.3,32.4L21.3,32.4z M18,35.6c-3.6-2-7.5-3.3-11.5-3.8c8.9-1.5,19.7,5.8,20.5,6.3
	C25.5,38.2,22.2,38.1,18,35.6L18,35.6z M3.8,38.9L3.8,38.9c-0.5,0-1-0.3-1.2-0.8S2.4,37,2.8,36.6c0.4-0.4,1-0.5,1.5-0.3
	c0.5,0.2,0.8,0.7,0.8,1.2C5.1,38.3,4.5,38.9,3.8,38.9L3.8,38.9z M18.1,51.8c0,0,4.1,2.1,5.7,4.9c-2.3-1.8-10-6.8-19.3-4.1
	C8,50.8,13.3,49,18.1,51.8L18.1,51.8z M14.7,54.9L14.7,54.9c-2.3-1.3-5-2-7.7-1.9c-1,0-2,0.1-2.9,0.2c9.9-3.2,18.1,2.8,19.7,4.2
	C22.4,57.6,19.1,57.5,14.7,54.9L14.7,54.9z M32.8,21c0,0.1-3,5.2-6.5,6.5c2-2.4,8.5-11,6.6-22.4C34.7,9.2,36.3,15.7,32.8,21L32.8,21
	z M29.4,16.8c2.9-4.5,3-9.9,2.6-13.3c2.8,11.8-3.9,21-6.1,23.5C26,25.3,26.4,21.5,29.4,16.8L29.4,16.8z M46.4,37.4
	c2.7-2.5,6.4-3.9,10.1-3.7c2.1,0,4.3,0.3,6.4,0.8c-11.8-1.2-19.4,7.4-21.5,10.1C42.2,41.1,46.4,37.5,46.4,37.4L46.4,37.4z
	 M51.1,39.9c-4.2,4.1-8,5.1-9.6,5.3C43.2,43,50.7,34.1,62.4,35C59.1,35.4,54.5,36.6,51.1,39.9L51.1,39.9z"/>
</svg>
