<?xml version="1.0" encoding="utf-8"?>
<!-- Generator: Adobe Illustrator 27.0.0, SVG Export Plug-In . SVG Version: 6.00 Build 0)  -->
<svg version="1.1" id="圖層_1" xmlns="http://www.w3.org/2000/svg" xmlns:xlink="http://www.w3.org/1999/xlink" x="0px" y="0px"
	 viewBox="0 0 141.7 141.7" style="enable-background:new 0 0 141.7 141.7;" xml:space="preserve">
<style type="text/css">
	.st0{fill-rule:evenodd;clip-rule:evenodd;}
</style>
<g transform="translate(-1792 -142)">
	<g>
		<path class="st0" d="M1911.2,199c0.6,0.6,2,2.7,3.1,4.6c1.1,2,2,5.9,2,8.7c0.1,3.2-0.9,6.6-2.4,9.1c-1.7,3-3.5,4.7-6.6,6.9
			c-2.4,1.6-6.7,3.3-9.8,4c-3,0.7-6.4,0.9-7.5,0.5c-1.1-0.4-2.3-0.5-2.6-0.2c-0.4,0.4,0.1,2.1,1,3.9c0.8,1.8,1.2,5.1,0.9,7.3
			c-0.6,2.7-1.8,4.9-4,7c-1.9,1.9-5.8,4.1-9.8,5.6c-3.7,1.4-8.8,2.3-11.5,2.2c-4.6-0.2-5.5-0.7-9.5-4.7c-3.4-3.4-4.8-5.6-6.5-10.7
			c-1.2-3.4-2.2-6.4-2.3-6.5c-0.1-0.1-2.5,2.3-5.4,5.2c-2.9,2.9-9.7,8.7-15.1,12.9c-5.4,4.1-11.2,8.3-13.1,9.1
			c-1.8,0.9-3.7,1.2-4.3,0.6c-0.6-0.6-0.5-1.6,0.4-2.4c0.8-0.8,5.2-4,9.8-7.1c5.3-3.7,12.1-9.6,19-16.3c5.9-5.8,11-11.4,11.5-12.5
			c0.9-1.8,0.6-1.9-2.5-1.1c-1.9,0.5-5.4,0.9-7.9,1c-2.8-0.1-6.3-1-9.3-2.7c-4-2.2-5.1-3.2-7.3-6.9c-1.8-3.2-2.5-5.8-2.2-10
			c0.1-3.2,1.1-7.3,2.1-9.2c1.1-1.9,3.2-4.4,4.7-5.6c1.6-1.1,4.6-2.2,6.6-2.5c2-0.2,6,0.3,8.9,1.4c2.8,1.1,6.4,3.2,10.8,7.5
			l-1.5-4.7c-0.9-2.6-1.4-6.5-1.2-8.7c0.3-2.3,1.4-5.9,2.6-8c1.7-3.1,3.1-4.7,6.1-6.5c2.2-1.3,6.2-2.8,9.1-3.3
			c2.7-0.5,6.7-0.2,8.6,0.5c1.9,0.8,4.2,2.1,5.1,3c0.9,0.9,2.5,4.2,3.5,7.3c1.3,4.1,1.5,7.1,0.6,10.2c-0.7,2.4-2.3,6.2-6,12.4l4-2.3
			c2.2-1.3,6.1-2.8,8.5-3.4c2.5-0.6,6.1-0.7,8.1-0.4c2,0.4,5.1,1.4,6.9,2.2C1908.6,197.2,1910.6,198.5,1911.2,199L1911.2,199z
			 M1865.4,171.6c-2.5,0.9-5.6,2.8-7.6,4.8c-2.5,2.5-3.4,4.4-3.8,7.7c-0.3,2.5,0.4,6.9,1.7,10.5c1.2,3.5,2.9,7.2,3.9,8.5
			c1,1.6,1.8,2,2.3,1.5c0.5-0.5,2.2-3.2,3.7-5.9c1.5-2.8,3.6-7.7,4.6-10.9c1.1-3.2,2.3-5.9,2.8-5.9c0.6-0.1,1.4,0.3,2,0.8
			c0.5,0.5,0.1,3.4-0.9,6.6c-1,3-3.3,8.5-5.1,12.1l-3.3,6.6c11-11.8,13.5-15.3,14.7-18.5c1.1-2.7,1.5-6.1,0.9-8.5
			c-0.5-2.2-1.5-5.1-2.5-6.5c-1.2-1.8-2.8-2.8-5.5-3.4C1871.4,170.6,1867.8,170.8,1865.4,171.6L1865.4,171.6z M1890.2,199.2
			c-2.6,0.9-6.2,2.7-8,4l-3.2,2.4c8-1.3,12.2-1.4,14.5-1.1c2.1,0.3,4.6,1,5.3,1.8c0.6,0.6,0.8,1.6,0.3,2.1c-0.4,0.4-3.2,0.6-6,0.4
			c-2.8-0.4-8.1,0.1-11.9,0.8c-3.7,0.7-8.3,1.9-10.2,2.5l-3.4,1.1c15.1,13.4,16.6,14.3,20.8,15.1c2.6,0.5,6.5,0.6,8.7,0.1
			c2.2-0.5,5.6-2,7.8-3.4c2.3-1.5,4.5-3.7,5.5-5.4c0.9-1.6,1.8-4.8,2-7.1c0.2-3.6-0.3-4.8-3.6-8.7c-3.5-4.1-4.4-4.6-8.7-5.3
			C1897.1,198,1892.8,198.4,1890.2,199.2L1890.2,199.2z M1869.2,222.6c1.8,2.5,3.9,6.1,4.7,8c0.8,1.9,1.8,5.3,2,7.5
			c0.3,2.1-0.1,4.6-0.9,5.4c-0.8,0.8-1.6,1.3-1.8,1.1c-0.2-0.2-0.6-2.2-0.9-4.3c-0.3-2.3-1.3-5.6-2-7.6c-0.8-1.9-3.4-6-5.9-9.1
			c-3.7-4.7-4.7-5.6-6-5c-0.9,0.3-2.8,2.5-4.3,4.9c-1.8,2.8-2.9,6.3-3.2,10.1c-0.4,3.2,0.1,7.6,1,9.9c0.9,2.2,2.9,5.4,4.6,7.1
			c1.6,1.6,4.2,3.4,5.9,3.9c1.6,0.5,4.8,0.4,7.1-0.3c2.4-0.7,6.4-2.3,9-3.6c4-2,4.9-2.8,5.9-5.3c0.7-1.7,0.5-4.7-0.3-7.2
			c-1-3-3.1-6.1-7.2-10.4c-3.2-3.4-7-6.8-8.4-7.7C1866.1,218.3,1866.2,218.6,1869.2,222.6z M1836.2,193.2c-1.3-0.1-3.7,0.2-5.5,0.9
			c-2,0.7-3.9,2.1-5.1,3.8c-1.1,1.5-1.9,5.3-2,8.9c-0.2,5.6,0.1,6.3,3.3,9.6c2.5,2.5,5,3.9,8.3,4.8c3.6,0.9,6.2,0.7,11.2-1.1
			c3.7-1.3,7.1-2.9,7.8-3.5c1-1,0.8-1.6-1.1-2.8c-1.3-0.8-4.4-2.2-6.9-3.2c-2.5-1-6.3-2.1-8.6-2.4c-2.1-0.3-4.3-0.9-4.6-1.3
			c-0.4-0.4-0.1-1.3,0.7-2.1c0.9-0.9,3.2-1.1,5.9-0.5c2.4,0.4,7,2,10.3,3.4c4.3,1.9,5.8,2.1,5.4,0.9c-0.3-0.8-2.7-3.9-5.2-6.8
			c-2.7-2.9-6.1-5.8-8-6.7S1837.5,193.4,1836.2,193.2L1836.2,193.2z"/>
	</g>
</g>
</svg>
