<svg width="161" height="229" xmlns="http://www.w3.org/2000/svg" xmlns:xlink="http://www.w3.org/1999/xlink" xml:space="preserve" overflow="hidden"><g transform="translate(-1365 -96)"><g><path d="M1503.18 166.47C1499.18 163.83 1500.99 160.011 1504.36 158.283 1504.23 161.244 1504.76 162.45 1504.07 165.103 1502.66 170.476 1506.57 162.048 1503.18 166.47ZM1439.05 127.802C1436.11 125.095 1435.1 120.781 1437.4 117.297 1439.81 118.021 1438.3 116.386 1439.83 119.602 1441.1 122.255 1442.71 125.216 1439.05 127.815ZM1432.07 106.994C1431.1 110.169 1431.39 108.039 1430.38 111.455 1430.7 111.254 1448.84 94.5729 1450.7 103.014 1450.67 103.014 1440.06 102.88 1437.19 108.776 1435.11 113.037 1437.72 112.568 1434.01 115.395 1430.46 118.115 1431.64 116.815 1429.99 120.795 1428.93 117.833 1432.09 118.771 1429.17 113.934 1424.94 120.594 1429.1 125.779 1429.99 131.956 1431.31 134.957 1434.4 138.776 1436.99 140.679 1443.17 145.207 1442.53 143.291 1442.6 151.893 1442.67 159.718 1445.1 171.657 1446.78 179.535 1447.69 183.89 1455.55 215.284 1457.38 218.806 1458.8 221.566 1458.06 218.739 1458.77 221.593L1459.93 231.548C1463.32 234.751 1461.81 239.4 1467.96 240.834L1467.95 237.202C1466.13 230.168 1464.7 221.888 1462.47 215.175 1457.72 200.838 1453.27 185.697 1451.01 170.625 1449.8 162.599 1448.25 153.675 1448.96 145.515 1475.24 143.412 1479.24 115.529 1461.3 103.75 1457.91 101.526 1456.83 99.3693 1452.02 98.3375 1442.75 96.3545 1432.85 103.617 1432.05 106.993ZM1490.03 162.959C1486.93 157.827 1493.38 152.079 1496.9 154.799 1495.42 156.742 1494.35 156.876 1493.26 158.35 1490.81 161.646 1493.64 161.137 1490.03 162.96ZM1480.98 153.794C1480.17 165.572 1480.92 162.289 1484.68 172.432 1486.2 176.492 1497.09 182.575 1491.95 185.281 1491.34 191.552 1483.77 212.387 1481.51 219.395 1477.94 230.476 1475.6 244.276 1472.95 254.996L1471.61 251.378C1469.05 249.315 1471.13 251.338 1469.64 248.457 1468.39 246.032 1469.52 246.903 1467.24 245.51 1467.35 251.016 1469.76 251.378 1466.99 256.295L1464.08 255.049C1464.09 250.574 1464.36 252.303 1462.15 248.698L1460.57 244.679 1458.67 241.369C1455.89 239.359 1455.77 237.684 1453.76 235.648 1451.27 233.115 1450.62 231.601 1448.5 229.377 1431.07 211.061 1443.3 217.707 1414.67 196.215 1410.69 194.754 1411.13 193.857 1407.83 191.914 1407.86 189.488 1407.45 190.4 1408.35 188.068 1409.46 185.255 1409.64 186.005 1411.08 185 1410.4 178.703 1411.58 176.144 1409.96 168.707L1403.76 163.441C1399.77 159.542 1401.72 161.592 1396.86 160.105 1389.36 157.827 1397.97 152.668 1383.8 154.852L1377.34 159.368C1375.54 165.719 1362.47 179.319 1376.22 188.685 1389.65 197.823 1394.96 190.386 1401.74 193.548 1405.1 195.116 1406.43 195.223 1407.79 198.6 1409.6 199.31 1423.89 210.699 1425.75 212.521L1455.31 247.32C1457.52 250.83 1459.61 253.831 1461.84 257.462 1464.73 262.152 1465.53 262.058 1469.09 265.408L1473.31 292.152C1474.71 298.731 1473.71 315.855 1475.4 321L1480.12 320.92C1481.98 315.105 1481.01 310.013 1480.45 303.984 1479.9 298.115 1481.83 296.668 1480.21 288.602 1472.51 250.253 1491.68 217.695 1493.19 201.347 1493.31 196.805 1494.59 196.778 1495.55 193.066 1496.81 188.216 1494.71 188.939 1498.23 185.375L1508.26 184.853 1509.86 185.04C1511.17 182.602 1510.8 183.017 1513.14 182.736 1514.32 179.748 1512.2 182.293 1515.51 180.082 1516.53 179.399 1517.4 178.877 1518.35 178.006 1521.76 174.884 1519.98 173.022 1523.53 171.829 1525.02 165.773 1522.77 159.797 1519.79 155.04 1516.15 149.225 1520.31 145.098 1511 142.271 1500.09 138.962 1492.03 144.281 1485.65 148.367 1482.78 150.203 1481.82 150.123 1480.96 153.834Z" fill="#000000" fill-rule="evenodd" fill-opacity="1"/></g></g></svg>