<svg width="317" height="284" xmlns="http://www.w3.org/2000/svg" xmlns:xlink="http://www.w3.org/1999/xlink" xml:space="preserve" overflow="hidden"><g transform="translate(-1727 -971)"><g><path d="M1846.4 1254 1845.47 1253.55C1842.25 1251.95 1827.58 1208.83 1827.3 1197.42 1827.04 1187.3 1825.61 1181.44 1824.23 1175.78 1823.52 1172.87 1822.85 1170.14 1822.33 1166.9 1822.25 1166.37 1822.16 1165.95 1822.08 1165.65 1821.55 1166.4 1820.88 1167.49 1820.38 1168.32 1818.94 1170.72 1817.46 1173.19 1815.7 1174.25 1812.02 1176.46 1761.68 1222.36 1752.47 1232.36 1742.11 1243.63 1737.9 1244.66 1735.65 1244.43 1734.33 1244.31 1733.25 1243.63 1732.53 1242.49 1731.98 1241.61 1731.86 1240.54 1732.17 1239.28 1735.5 1225.79 1799.6 1176.59 1811.05 1168.35 1808.91 1167.73 1804.08 1166.74 1793.17 1165.54 1784.91 1164.62 1769.28 1153.42 1756.72 1144.41 1751.37 1140.57 1746.74 1137.25 1744.56 1136.16 1742.71 1135.23 1740.16 1133.96 1740.81 1131.92 1741.37 1130.22 1742.8 1129.61 1753.53 1131.4 1758.73 1132.27 1776.94 1141.72 1793.01 1150.04 1801.6 1154.5 1809 1158.34 1812.69 1159.96 1813.06 1160.13 1813.41 1160.28 1813.74 1160.41 1812.34 1158.31 1801.13 1147.13 1793.65 1139.67 1789.35 1135.39 1785.44 1131.49 1783.19 1129.15 1776.85 1122.55 1748.74 1075.57 1748.74 1072.88L1748.74 1071.66 1749.94 1071.15C1753.23 1070.05 1772.22 1089.08 1777.06 1095.11 1780.61 1099.52 1787.66 1109.81 1795.12 1120.71 1805.3 1135.58 1816.84 1152.44 1820.57 1155.89 1822.35 1157.54 1823.27 1158.07 1823.69 1158.25 1823.76 1158.09 1823.83 1157.9 1823.88 1157.75 1824.05 1157.27 1824.25 1156.72 1824.59 1156.24 1823.8 1154.35 1820.24 1149.07 1817.32 1144.74 1813.85 1139.61 1809.93 1133.78 1807.46 1129.29 1801.85 1119.06 1792.38 1097.58 1790.47 1091.85 1789.06 1087.59 1776 1036.29 1779.57 1028.83 1780.28 1027.36 1781.44 1027.29 1781.95 1027.27 1785.34 1027.4 1789.6 1035.99 1800.95 1065.54 1802.79 1070.32 1804.23 1074.11 1804.88 1075.46 1807.74 1081.44 1829.64 1150.67 1830.78 1154.63 1830.79 1154.68 1830.81 1154.74 1830.82 1154.78 1831.39 1154.56 1832.41 1153.8 1832.99 1153.37 1833.63 1152.9 1834.25 1152.45 1834.78 1152.15 1834.93 1151.42 1834.51 1149.32 1834.22 1147.75 1833.78 1145.52 1833.3 1142.99 1833.3 1140.51 1833.3 1138.33 1831.7 1134.33 1830.02 1130.1 1827.71 1124.33 1824.85 1117.15 1824.12 1110.21 1823.45 1103.95 1819.72 1094.17 1816.42 1085.55 1813.42 1077.69 1810.83 1070.91 1810.58 1067.11 1810.46 1065.21 1809.88 1060.51 1809.16 1054.57 1803.87 1010.63 1804.55 1006.31 1807.7 1005.85 1809.26 1005.65 1813.35 1005.05 1824.92 1052.49 1827.7 1063.88 1837.14 1109.65 1838.22 1115.62 1839.16 1120.77 1840.53 1142.17 1840.77 1148.77 1843.03 1147.28 1847.18 1143.39 1848.71 1141.94 1849.32 1141.35 1849.84 1140.87 1850.22 1140.54 1850.32 1139.85 1848.63 1136.95 1847.6 1135.21 1845.79 1132.12 1843.92 1128.92 1843.77 1126 1843.67 1123.82 1842.71 1122.43 1841.57 1120.81 1840.33 1119.03 1838.92 1117 1838.92 1113.88 1838.92 1111.71 1838.68 1109.33 1838.4 1106.59 1838.04 1103.07 1837.64 1099.08 1837.64 1094.41 1837.64 1090.12 1835.18 1079.39 1833.02 1069.94 1831.11 1061.59 1829.46 1054.38 1829.46 1051.62 1829.46 1051.07 1830.11 996.659 1834.18 993.459L1834.83 992.95 1835.91 993.084C1841.2 994.409 1848.14 1058.54 1848.19 1059.18 1848.42 1062.42 1849.94 1077.49 1851.54 1093.43 1853.9 1116.82 1855.61 1133.96 1855.83 1137.83 1857.29 1137.14 1859.89 1135.04 1860.85 1134.26L1861.79 1133.51C1862.28 1133.14 1861.57 1130.27 1861.21 1128.75 1860.69 1126.62 1860.1 1124.21 1860.1 1121.8 1860.1 1116.49 1860.1 1114.71 1857.93 1109.38 1856.3 1105.37 1856.42 1097.56 1856.57 1089.29 1856.64 1085.09 1856.7 1081.13 1856.53 1077.81 1856.33 1074.09 1855.88 1068.12 1855.38 1061.72 1854.59 1051.5 1853.71 1039.91 1853.71 1034.95 1853.71 1030.4 1856.64 1017.43 1859.13 1007.71 1864.83 985.577 1866.28 985.577 1867.68 985.577 1869.86 985.577 1871.43 985.577 1871.43 1054.67 1871.43 1059.56 1870.14 1111.27 1869.12 1123.22 1868.76 1127.45 1868.91 1129.15 1869.07 1129.82 1869.34 1129.71 1869.68 1129.56 1869.94 1129.44 1870.59 1129.13 1871.31 1128.81 1872.07 1128.6 1874.85 1127.81 1876.7 1124.44 1876.7 1121.79 1876.7 1120.7 1876.53 1117.76 1876.32 1113.8 1875.86 1105.59 1875.17 1093.2 1875.17 1083.87 1875.17 1070.54 1877.88 1045.87 1880.65 1038.92 1881.47 1036.87 1883.77 1029.5 1886.43 1020.96 1899.86 977.897 1900.62 977.897 1902.67 977.897L1903.48 977.897 1904.17 978.633C1906.99 982.099 1899.32 1026.41 1899.24 1026.85 1897.78 1033.93 1891.87 1066.17 1891.87 1073.64 1891.87 1079.93 1887.2 1105.86 1884.96 1118.34 1884.75 1119.49 1884.57 1120.5 1884.41 1121.36 1886.36 1119.79 1889.54 1116.93 1893.77 1112.7 1894.55 1110.88 1895.89 1093.3 1896.4 1086.67L1896.64 1083.49C1897.16 1076.88 1912.58 1020.49 1916.72 1011.67 1920.76 1003.04 1927.94 986.059 1930.19 979.796 1930.76 978.203 1931.95 974.925 1934.31 975.246 1936.2 975.527 1937.09 977.722 1937.34 982.593 1937.62 988.24 1928.7 1019.8 1925.27 1030.84 1924.31 1033.9 1922.32 1040.22 1919.85 1048.03 1913.49 1068.22 1903.28 1100.53 1900.63 1109.68 1901.72 1108.7 1902.92 1107.52 1903.55 1106.9 1904.25 1106.21 1904.84 1105.63 1905.17 1105.35 1905.94 1104.34 1907.7 1097.58 1910.35 1085.39L1910.48 1084.78C1911.43 1080.42 1922.31 1060.36 1935.34 1036.55 1938.48 1030.81 1941.24 1025.79 1943.08 1022.34 1946.24 1016.41 1949.75 1007.02 1953.14 997.929 1959.06 982.031 1961.76 975.433 1964.47 974.228 1965.11 973.948 1965.8 973.92 1966.41 974.175 1969.48 975.406 1969.22 981.402 1961.58 1014.43 1960.29 1019.98 1959.18 1024.79 1959.05 1026.15 1958.78 1028.91 1951.58 1041.21 1934.45 1069.58 1928.96 1078.67 1922.96 1088.6 1919.66 1094.41 1924.85 1090 1933.07 1082.08 1936.14 1078.43 1940.53 1073.21 1979.96 1049.75 1985.31 1048.41 1987.83 1047.78 2001.29 1045.06 2014.85 1042.52 2041.76 1037.48 2041.95 1037.82 2042.68 1039.31L2043 1039.95 2042.76 1040.66C2042.35 1041.85 2042.21 1042.21 1985.92 1068.34 1968.95 1076.22 1952.93 1083.65 1950.81 1084.86 1950.08 1085.28 1948.98 1085.91 1947.6 1086.67 1943.56 1088.93 1933.71 1094.46 1927.75 1098.29 1930.5 1097.34 1933.9 1096.07 1937.24 1094.81 1949.31 1090.28 1965.85 1084.1 1978.8 1081.93 1996.46 1078.98 2031.99 1076.7 2035.85 1079.66 2036.34 1080.03 2036.65 1080.57 2036.7 1081.14 2036.94 1083.63 2037.05 1084.65 1944.43 1102.21 1941.57 1102.74 1938.94 1103.25 1936.58 1103.69 1940.97 1103.69 1945.99 1103.67 1950.52 1103.64 1962.69 1103.57 1975.26 1103.49 1980.22 1103.93 1986.77 1104.52 2025.7 1113.78 2025.7 1118.96L2025.7 1119.71 2025.12 1120.3C2023.57 1121.75 2013.24 1121.51 1947.91 1117.09 1939.89 1116.55 1931.76 1116.01 1924.71 1115.55 1937.75 1118.86 1968.88 1130.87 1978.47 1135.36 1988.24 1139.91 2006.63 1155.55 2004.91 1160.29L2004.65 1160.99 2003.86 1161.37C2002.61 1161.9 1999.7 1163.15 1905.73 1121.2L1904.79 1120.78C1898.26 1117.86 1896.14 1119.67 1891.02 1124.02 1889.86 1125.01 1888.58 1126.09 1887.11 1127.23 1886.54 1127.69 1886.24 1128 1886.1 1128.18 1887.31 1129.04 1892.07 1129.78 1895.29 1130.26 1899.7 1130.93 1904.28 1131.64 1907.43 1133.01 1912.1 1135.06 1980.22 1179.65 1980.22 1187.36 1980.22 1188.28 1979.78 1189.06 1979.01 1189.46 1976.45 1190.85 1970.9 1187.55 1951.72 1174.66 1942.52 1168.48 1933 1162.07 1928.87 1160.51 1922.85 1158.25 1910.32 1150.84 1899.28 1144.31 1891.38 1139.64 1883.93 1135.22 1880.77 1133.84 1874.53 1131.11 1870.56 1136.65 1868.94 1139.7 1871.47 1142.86 1890.71 1152.04 1901.2 1157.06 1906.64 1159.66 1911.34 1161.91 1913.93 1163.31 1922.77 1168.1 1966.41 1209.65 1966.41 1214.77L1966.41 1215.81 1965.35 1216.55C1963.74 1217.41 1961.89 1218.36 1913 1184.1L1911.62 1183.13C1901.46 1176.03 1867.31 1147.55 1861.28 1142.52 1854.73 1145.86 1849 1149.85 1848.44 1151.5 1850.91 1154.96 1875.51 1170.33 1888.86 1178.66 1896.11 1183.19 1902.37 1187.11 1905.13 1189.04 1914.31 1195.43 1940.86 1232.23 1940.86 1237.07L1940.86 1238.18 1939.7 1238.92C1937.62 1239.84 1934.42 1237.7 1910 1215.87 1903.73 1210.26 1897.82 1204.98 1894.74 1202.54 1889.92 1198.73 1877.88 1188.02 1866.21 1177.68 1855.06 1167.77 1844.52 1158.42 1841.57 1156.2 1839.52 1154.64 1838.8 1154.78 1838.8 1154.76 1838.56 1154.94 1838.28 1156.02 1838.14 1156.54 1838.02 1157 1837.9 1157.43 1837.76 1157.83 1839.06 1159.93 1846.36 1166.66 1850.8 1170.76 1854.63 1174.29 1857.94 1177.34 1859.45 1179.05 1863.76 1183.91 1885.69 1219.98 1893.22 1238.47L1894.06 1240.54C1897.97 1250.12 1898.21 1250.69 1896.71 1251.78 1895.35 1252.75 1894.19 1251.75 1892.08 1249.93 1890.44 1248.52 1887.99 1246.4 1884.85 1244.42 1873.57 1237.24 1843.4 1186.31 1838.21 1173.15 1835.56 1166.43 1833.41 1162.78 1831.82 1162.27 1831.26 1162.08 1830.56 1162.34 1829.23 1163.21 1827.87 1164.09 1832.59 1172.6 1834.14 1175.4 1835.21 1177.33 1836.24 1179.17 1837 1180.75 1840.29 1187.65 1843.31 1205.31 1843.8 1216.51 1844.11 1223.34 1845.51 1235.58 1847.76 1250.99L1848.02 1252.73 1846.35 1254ZM1831.5 1158.8C1831.95 1158.8 1832.42 1158.86 1832.91 1159.02 1835.74 1159.93 1838.13 1163.55 1841.44 1171.91 1846.91 1185.76 1876.99 1235.36 1886.74 1241.55 1889.06 1243.04 1891.02 1244.57 1892.58 1245.85 1892.11 1244.69 1891.57 1243.35 1890.97 1241.87L1890.12 1239.81C1882.89 1222.04 1861.07 1186 1856.97 1181.37 1855.57 1179.79 1852.17 1176.65 1848.55 1173.33 1835.21 1161.03 1833.38 1158.87 1834.54 1156.84 1834.6 1156.75 1834.65 1156.58 1834.72 1156.37 1833.13 1157.54 1831.37 1158.71 1829.61 1158.12 1829.14 1157.96 1828.58 1157.64 1828.11 1156.97 1828.11 1157 1828.1 1157.03 1828.1 1157.05L1827.96 1157.75 1827.26 1158.34C1827.3 1158.34 1827.18 1158.7 1827.08 1158.94 1826.76 1159.82 1826.23 1161.31 1824.66 1161.7 1824.27 1161.79 1823.85 1161.8 1823.43 1161.74 1824.87 1162.41 1825.39 1164.43 1825.7 1166.38 1826.19 1169.47 1826.84 1172.15 1827.54 1174.97 1828.96 1180.82 1830.45 1186.86 1830.7 1197.35 1830.94 1206.94 1837.82 1226.67 1842.75 1239.37 1841.45 1229.51 1840.67 1221.79 1840.44 1216.69 1839.92 1204.84 1836.77 1188.12 1833.97 1182.25 1833.23 1180.73 1832.25 1178.95 1831.21 1177.09 1827.18 1169.82 1823.36 1162.97 1827.43 1160.35 1828.62 1159.58 1829.97 1158.81 1831.5 1158.81ZM1735.44 1240.67C1735.6 1240.92 1735.76 1240.99 1735.97 1241.02 1736.77 1241.08 1740.29 1240.55 1749.97 1230.04 1758.54 1220.72 1809.37 1174.08 1813.94 1171.32 1814.98 1170.69 1816.35 1168.4 1817.46 1166.55 1817.69 1166.18 1817.91 1165.81 1818.13 1165.46 1816.95 1165.44 1815.03 1164.72 1811.32 1163.09 1807.55 1161.43 1800.09 1157.56 1791.46 1153.08 1777.19 1145.68 1757.66 1135.56 1752.99 1134.77 1750.76 1134.4 1749.04 1134.15 1747.72 1133.99 1750.3 1135.56 1754.11 1138.3 1758.73 1141.61 1769.67 1149.45 1786.19 1161.3 1793.56 1162.12 1815.04 1164.52 1815.38 1166.13 1815.71 1167.68 1815.79 1168.04 1815.93 1169.3 1814.42 1170.18 1805.93 1175.2 1732.84 1233.37 1735.45 1240.7ZM1841.65 1152.16C1842.4 1152.54 1843.09 1153.04 1843.68 1153.48 1846.75 1155.78 1857.33 1165.18 1868.54 1175.13 1880.16 1185.45 1892.18 1196.12 1896.92 1199.88 1900.08 1202.38 1906.03 1207.69 1912.33 1213.34 1919.84 1220.06 1930.32 1229.44 1935.81 1233.6 1930.03 1223.67 1911.09 1197.34 1903.24 1191.88 1900.55 1189.99 1894.31 1186.11 1887.1 1181.6 1853.87 1160.84 1845.23 1154.74 1845.04 1151.89 1844.98 1150.87 1845.48 1149.77 1846.36 1148.66 1844.32 1150.43 1842.83 1151.55 1841.65 1152.15ZM1861.8 1138.48 1862.65 1139.19C1863.05 1139.52 1902.83 1172.79 1913.62 1180.34L1915.01 1181.32C1942.68 1200.7 1955.41 1208.86 1960.92 1211.87 1952.31 1201.65 1920.46 1170.76 1912.34 1166.36 1909.82 1164.99 1905.16 1162.77 1899.76 1160.19 1877.02 1149.33 1866.68 1143.93 1865.55 1140.59 1865.33 1139.95 1865.36 1139.28 1865.64 1138.72 1866.64 1136.73 1867.96 1134.8 1869.55 1133.26 1868.73 1133.46 1867.89 1133.43 1867.09 1132.89 1865.52 1131.79 1865.17 1129.27 1865.72 1122.96 1866.73 1111.07 1868.01 1059.56 1868.01 1054.69 1868.01 1030.4 1867.67 1003.73 1866.92 992.943 1863.45 1003.35 1857.14 1028.7 1857.14 1034.97 1857.14 1039.8 1858.02 1051.32 1858.79 1061.49 1859.29 1067.93 1859.74 1073.92 1859.94 1077.67 1860.13 1081.11 1860.05 1085.31 1859.98 1089.38 1859.86 1096.58 1859.73 1104.74 1861.09 1108.1 1863.52 1114.04 1863.52 1116.32 1863.52 1121.82 1863.52 1123.81 1864.05 1126.01 1864.52 1127.95 1865.33 1131.31 1866.11 1134.49 1863.88 1136.23L1862.98 1136.94C1861.68 1138 1860.49 1138.94 1859.39 1139.69 1859.87 1139.45 1860.34 1139.2 1860.8 1138.99L1861.8 1138.5ZM1877.54 1129.71C1879 1129.71 1880.55 1130.03 1882.17 1130.73 1885.52 1132.19 1892.73 1136.44 1901.07 1141.38 1911.99 1147.86 1924.39 1155.18 1930.12 1157.33 1934.63 1159.02 1943.88 1165.26 1953.67 1171.83 1961.2 1176.9 1971.03 1183.5 1975.61 1185.64 1966.7 1175.98 1914.2 1139.71 1906.09 1136.16 1903.35 1134.96 1898.81 1134.26 1894.81 1133.66 1888.2 1132.64 1883.44 1131.92 1882.68 1129.02 1882.37 1127.81 1882.88 1126.76 1883.53 1125.94 1882.51 1126.35 1882.05 1126.13 1881.62 1125.9 1881.32 1125.74 1880.33 1125.11 1880.56 1123.57 1880.66 1122.9 1881.05 1120.76 1881.6 1117.71 1883.65 1106.31 1888.46 1079.61 1888.46 1073.63 1888.46 1065.78 1894.37 1033.55 1895.9 1026.15 1897.33 1019.21 1900.56 996.985 1901.36 986.227 1898.24 994.671 1893.11 1011.09 1889.71 1021.99 1886.91 1030.95 1884.71 1038.03 1883.84 1040.2 1881.44 1046.22 1878.6 1069.9 1878.6 1083.88 1878.6 1093.12 1879.28 1105.46 1879.74 1113.62 1879.97 1117.67 1880.13 1120.69 1880.13 1121.8 1880.13 1124.5 1878.89 1127.63 1876.69 1129.75 1876.97 1129.72 1877.25 1129.71 1877.54 1129.71ZM1755.01 1078.01C1762.19 1090.85 1780.43 1121.31 1785.66 1126.76 1787.9 1129.08 1791.78 1132.97 1796.06 1137.22 1807.91 1149.03 1815.77 1156.92 1816.84 1158.89 1817.17 1159.5 1817.85 1160.28 1818.41 1160.91 1819 1161.58 1819.61 1162.26 1819.84 1162.98 1820.69 1161.99 1821.57 1161.44 1822.63 1161.51 1821.45 1161.07 1820.07 1160.08 1818.26 1158.42 1814.25 1154.7 1803.09 1138.41 1792.31 1122.66 1784.9 1111.82 1777.89 1101.58 1774.42 1097.26 1769.01 1090.51 1760.43 1082.55 1755.02 1078.03ZM1899.42 1115.98C1901.35 1115.98 1903.53 1116.49 1906.19 1117.67L1907.14 1118.1C1965.6 1144.19 1993.23 1155.43 2000.89 1157.71 1997.77 1153.53 1986.45 1142.85 1977.05 1138.46 1965.37 1133.02 1926.48 1118.36 1919.98 1118.12 1919.8 1118.11 1902.61 1117.28 1900.74 1113.91 1899.49 1114.71 1898.54 1114.88 1897.65 1114.37 1897.4 1114.24 1897.13 1114.03 1896.93 1113.72 1896.69 1114.48 1896.46 1114.82 1896.21 1115.06 1895.19 1116.07 1894.25 1117.01 1893.38 1117.85 1895.21 1116.69 1897.12 1115.97 1899.41 1115.97ZM1782.36 1031.45C1781.16 1040.61 1791.62 1084.47 1793.72 1090.77 1795.4 1095.82 1804.78 1117.29 1810.45 1127.64 1812.83 1132 1816.72 1137.75 1820.15 1142.83 1823.37 1147.62 1825.43 1150.71 1826.64 1152.82 1822.4 1139.16 1804.22 1082.03 1801.79 1076.94 1801.08 1075.47 1799.69 1071.83 1797.74 1066.77 1794.12 1057.3 1786 1036.17 1782.35 1031.45ZM1853.54 1140.97C1853.47 1141.76 1853.15 1142.46 1852.49 1143.05 1852.13 1143.37 1851.63 1143.84 1851.03 1144.41 1850.78 1144.65 1850.53 1144.89 1850.29 1145.1 1852.15 1143.74 1854.32 1142.42 1856.4 1141.26 1855.49 1141.55 1854.68 1141.57 1853.94 1141.21 1853.82 1141.14 1853.67 1141.06 1853.53 1140.95ZM1808.66 1010.76C1808.22 1018.27 1811.07 1042.01 1812.54 1054.14 1813.26 1060.13 1813.83 1064.87 1813.97 1066.86 1814.18 1070.14 1816.81 1077.02 1819.6 1084.32 1822.96 1093.13 1826.79 1103.13 1827.5 1109.84 1828.18 1116.3 1830.83 1122.95 1833.17 1128.81 1835.14 1133.76 1836.7 1137.67 1836.7 1140.5 1836.7 1141.93 1836.9 1143.45 1837.16 1144.93 1836.7 1136.28 1835.62 1120.49 1834.83 1116.21 1833.75 1110.27 1824.35 1064.64 1821.57 1053.28 1816.7 1033.33 1811.45 1016.14 1808.64 1010.75ZM1835.65 999.322C1833.95 1010.34 1832.87 1043.26 1832.87 1051.6 1832.87 1053.95 1834.63 1061.67 1836.34 1069.14 1838.65 1079.24 1841.04 1089.7 1841.04 1094.37 1841.04 1098.86 1841.42 1102.76 1841.79 1106.2 1842.08 1109.03 1842.32 1111.5 1842.32 1113.84 1842.32 1115.87 1843.23 1117.17 1844.36 1118.8 1845.6 1120.6 1847.02 1122.62 1847.16 1125.79 1847.26 1127.86 1848.99 1130.81 1850.52 1133.42 1851.16 1134.52 1851.81 1135.61 1852.33 1136.64 1851.85 1130.55 1849.88 1111.14 1848.14 1093.74 1846.52 1077.76 1845 1062.68 1844.77 1059.39 1844.28 1052.17 1838.81 1011.57 1835.63 999.313ZM1904.59 1111.08C1909.34 1111.08 1924.21 1112.07 1948.15 1113.69 1973.39 1115.39 2006.42 1117.63 2018.65 1117.75 2009.81 1114.16 1988.85 1108.18 1979.92 1107.39 1975.12 1106.96 1962.61 1107.03 1950.53 1107.11 1921.57 1107.28 1921.56 1107.19 1921.32 1105.02 1921.23 1104.18 1921.63 1103.65 1922.15 1103.31 1921.93 1103.31 1921.77 1103.31 1921.61 1103.28 1920.43 1103.13 1919.87 1102.34 1919.73 1101.65 1919.36 1099.69 1920.35 1098.01 1945.9 1083.69 1947.26 1082.92 1948.36 1082.31 1949.09 1081.89 1951.33 1080.61 1966.68 1073.49 1984.45 1065.23 2000.61 1057.74 2021.02 1048.26 2032.07 1042.91 2017.69 1045.32 1990.42 1050.64 1986.09 1051.73 1981.38 1052.91 1942.54 1076.07 1938.72 1080.64 1938.53 1080.85 1919.04 1101.7 1915.22 1100.83L1914.21 1100.59 1913.79 1099.41C1913.46 1098.07 1914.01 1096.79 1931.51 1067.8 1941.49 1051.27 1955.17 1028.61 1955.65 1025.79 1955.81 1024.24 1956.83 1019.8 1958.25 1013.67 1960.52 1003.87 1964.97 984.613 1964.89 978.537 1962.73 981.976 1959.1 991.732 1956.33 999.146 1952.9 1008.34 1949.35 1017.86 1946.08 1023.98 1944.24 1027.44 1941.48 1032.48 1938.33 1038.22 1928.92 1055.38 1914.73 1081.3 1913.81 1085.53L1913.67 1086.14C1909.99 1103.16 1908.6 1106.96 1907.35 1108 1907.05 1108.24 1906.55 1108.75 1905.93 1109.35 1905.29 1109.98 1904.71 1110.56 1904.16 1111.08L1904.6 1111.08ZM1933.69 980.224C1933.61 980.438 1933.5 980.692 1933.41 980.96 1931.09 987.424 1923.97 1004.26 1919.81 1013.13 1915.85 1021.59 1900.53 1077.71 1900.05 1083.77L1899.81 1086.92C1899.13 1095.88 1898.6 1101.91 1898.16 1106.01 1901.64 1094.38 1910.4 1066.62 1916.6 1047 1919.06 1039.2 1921.05 1032.9 1922 1029.82 1926.23 1016.25 1934.15 987.367 1933.93 982.766 1933.87 981.709 1933.78 980.866 1933.69 980.223ZM2024.13 1081.68C2012.74 1081.68 1993.78 1082.9 1979.34 1085.32 1966.72 1087.43 1950.36 1093.55 1938.42 1098.02 1933.77 1099.76 1930.29 1101.06 1927.68 1101.93 1931.33 1101.22 1936.93 1100.16 1943.82 1098.85 1967.55 1094.35 2013.06 1085.72 2028.67 1081.76 2027.36 1081.7 2025.84 1081.68 2024.16 1081.68Z" fill="#000000" fill-rule="evenodd" fill-opacity="1"/></g></g></svg>