<svg width="55" height="41" xmlns="http://www.w3.org/2000/svg" xmlns:xlink="http://www.w3.org/1999/xlink" xml:space="preserve" overflow="hidden"><defs><clipPath id="clip0"><rect x="2172" y="1205" width="55" height="41"/></clipPath><clipPath id="clip1"><rect x="2172" y="1205" width="55" height="41"/></clipPath></defs><g clip-path="url(#clip0)" transform="translate(-2172 -1205)"><g clip-path="url(#clip1)"><path d="M2175.09 1245.89C2175.01 1245.78 2175 1245.71 2175 1245.18 2175 1242.75 2175.72 1240.24 2177.38 1236.86 2177.62 1236.37 2177.9 1235.82 2178.01 1235.63L2178.2 1235.29 2177.93 1234.69C2177.38 1233.47 2177.16 1232.55 2177.21 1231.67 2177.23 1231.24 2177.26 1231.05 2177.41 1230.55 2177.69 1229.61 2177.7 1229.52 2177.61 1228.68 2177.44 1227.12 2177.48 1226.43 2177.75 1225.85 2177.82 1225.71 2178.07 1225.3 2178.32 1224.95 2179.01 1223.97 2179.04 1223.9 2179.25 1222.49 2179.46 1221.13 2179.61 1220.6 2179.9 1220.17 2179.98 1220.06 2180.26 1219.74 2180.54 1219.44 2181.43 1218.49 2182.09 1217.5 2182.76 1216.08 2182.96 1215.67 2183.06 1215.5 2183.14 1215.47 2183.31 1215.39 2183.41 1215.4 2183.55 1215.54 2183.68 1215.65 2183.7 1215.72 2183.79 1216.19 2183.94 1216.95 2184.19 1217.58 2184.49 1217.98 2184.56 1218.07 2184.79 1218.33 2185 1218.56 2185.46 1219.04 2185.58 1219.23 2185.68 1219.58 2185.78 1219.91 2185.75 1220.28 2185.59 1220.8 2185.4 1221.41 2185.42 1221.69 2185.68 1222.34 2185.89 1222.84 2185.9 1222.9 2185.9 1223.27 2185.9 1223.65 2185.89 1223.69 2185.71 1224.07 2185.61 1224.29 2185.32 1224.78 2185.07 1225.16 2184.45 1226.12 2184.45 1226.11 2184.16 1226.84 2184.02 1227.2 2183.86 1227.58 2183.79 1227.69 2183.61 1228 2183.27 1228.4 2182.66 1229.02 2182.14 1229.55 2181.87 1229.88 2181.58 1230.4 2181.46 1230.6 2181.44 1230.62 2182.14 1229.86 2183.56 1228.31 2185.77 1226.54 2187.86 1225.28 2188.33 1224.99 2188.38 1224.96 2188.36 1224.85 2188.27 1224.39 2188.23 1223.56 2188.28 1222.98 2188.37 1221.99 2188.54 1221.4 2188.93 1220.78 2189.17 1220.39 2189.25 1220.18 2189.25 1220.01 2189.25 1219.93 2189.2 1219.62 2189.14 1219.32 2189.02 1218.69 2189.01 1218.18 2189.09 1217.84 2189.22 1217.36 2189.45 1217.04 2190.09 1216.47 2190.64 1215.97 2190.78 1215.76 2191.19 1214.79 2191.91 1213.07 2192.12 1212.77 2193.44 1211.69 2194.21 1211.06 2194.19 1211.08 2194.75 1210.46 2195.43 1209.71 2195.54 1209.66 2196.79 1209.47 2197.94 1209.3 2198.09 1209.32 2198.2 1209.65 2198.26 1209.83 2198.19 1210.02 2197.92 1210.43 2197.69 1210.78 2197.34 1211.52 2197.28 1211.81 2197.24 1211.98 2197.23 1212.2 2197.26 1212.58 2197.28 1212.88 2197.3 1213.34 2197.3 1213.61 2197.3 1214.05 2197.28 1214.15 2197.15 1214.52 2197.08 1214.75 2196.81 1215.35 2196.55 1215.84 2196.18 1216.58 2196.05 1216.89 2195.81 1217.62 2195.65 1218.11 2195.45 1218.66 2195.36 1218.84 2195.15 1219.28 2194.8 1219.65 2194.23 1220.05 2193.97 1220.22 2193.7 1220.43 2193.61 1220.52 2193.53 1220.61 2193.34 1220.92 2193.2 1221.21 2192.87 1221.88 2192.77 1222.01 2192.24 1222.45 2191.83 1222.78 2191.42 1223.18 2191.29 1223.38L2191.22 1223.47 2191.41 1223.39C2191.52 1223.34 2191.72 1223.25 2191.86 1223.19 2193.1 1222.62 2195.51 1221.75 2197.21 1221.26L2197.64 1221.14 2197.74 1220.65C2197.86 1220.05 2197.98 1219.68 2198.21 1219.23 2198.53 1218.57 2198.98 1218 2199.49 1217.61 2199.88 1217.31 2200.21 1216.98 2200.34 1216.78 2200.49 1216.54 2200.62 1216.16 2200.88 1215.25 2201.28 1213.81 2201.56 1213.41 2202.56 1212.81 2203.23 1212.41 2203.47 1212.17 2204.03 1211.32 2204.55 1210.54 2204.86 1210.2 2205.33 1209.93 2206.51 1209.25 2206.86 1208.98 2207.74 1208.06 2208.66 1207.11 2208.79 1207 2209 1207 2209.12 1207 2209.18 1207.03 2209.25 1207.12 2209.37 1207.27 2209.37 1207.36 2209.25 1208.44L2209.15 1209.31 2209.26 1209.9C2209.51 1211.29 2209.36 1211.71 2208.24 1212.9 2207.53 1213.65 2207.47 1213.75 2207.19 1214.53 2206.99 1215.12 2206.89 1215.3 2206.55 1215.69 2206.28 1216 2205.93 1216.31 2205.29 1216.82 2205.07 1216.99 2204.43 1217.59 2203.86 1218.15 2202.79 1219.23 2202.49 1219.47 2201.91 1219.77 2201.61 1219.92 2200.77 1220.25 2200.16 1220.45 2199.79 1220.57 2200.08 1220.53 2200.91 1220.36 2202.48 1220.03 2205.42 1219.57 2207.16 1219.4 2207.45 1219.37 2207.46 1219.36 2207.46 1219.24 2207.46 1219.03 2207.6 1218.76 2208.25 1217.78 2209.38 1216.06 2209.76 1215.66 2210.75 1215.15 2211.8 1214.61 2211.98 1214.45 2212.88 1213.28 2214.07 1211.73 2214.57 1211.32 2215.54 1211.16 2216.37 1211.02 2216.49 1210.96 2217.75 1209.92 2218.51 1209.3 2218.66 1209.2 2218.83 1209.27 2218.96 1209.32 2219.08 1209.48 2219.08 1209.61 2219.08 1209.72 2218.49 1211.04 2218.03 1211.98 2217.73 1212.59 2217.7 1212.64 2217.2 1213.16 2216.64 1213.75 2216.51 1213.93 2216.14 1214.64 2215.8 1215.28 2215.36 1215.71 2214.25 1216.47 2213.57 1216.94 2213.29 1217.16 2212.87 1217.58 2212.16 1218.29 2211.86 1218.44 2210.32 1218.87 2209.84 1219 2209.39 1219.13 2209.34 1219.15 2209.25 1219.19 2209.25 1219.19 2209.41 1219.2 2209.5 1219.2 2209.83 1219.18 2210.13 1219.15 2210.85 1219.1 2213.65 1218.98 2214.29 1218.98L2214.78 1218.98 2214.85 1218.84C2215.02 1218.5 2215.8 1217.42 2216.05 1217.15 2216.26 1216.95 2216.46 1216.79 2216.78 1216.62 2217.72 1216.1 2217.8 1216.04 2218.52 1215.05 2218.87 1214.58 2219.28 1214.2 2219.92 1213.76 2220.51 1213.36 2220.9 1212.98 2221.73 1212.04 2222.01 1211.71 2222.31 1211.41 2222.39 1211.36 2222.58 1211.24 2222.79 1211.25 2222.92 1211.38 2223.07 1211.53 2223.06 1211.71 2222.88 1212.17 2222.79 1212.37 2222.67 1212.73 2222.61 1212.97 2222.25 1214.28 2222.13 1214.5 2221.36 1215.3 2221.08 1215.6 2220.74 1215.99 2220.61 1216.17 2220.29 1216.6 2220.01 1216.87 2219.6 1217.1 2218.87 1217.53 2218.8 1217.58 2218.6 1217.85 2218.35 1218.17 2217.96 1218.47 2217.39 1218.76L2217 1218.97 2217.28 1218.97C2217.55 1218.98 2217.57 1218.97 2217.64 1218.84 2217.7 1218.75 2217.84 1218.65 2218.21 1218.47 2219.34 1217.92 2219.91 1217.84 2220.79 1218.12 2221.35 1218.3 2221.33 1218.3 2222.08 1218.35 2223.39 1218.45 2223.76 1218.53 2224.34 1218.85 2224.52 1218.95 2224.79 1219.1 2224.93 1219.18 2225.12 1219.28 2225.39 1219.37 2225.83 1219.46 2226.62 1219.63 2226.9 1219.76 2226.97 1219.98 2227.01 1220.1 2227.01 1220.15 2226.96 1220.26 2226.88 1220.42 2226.78 1220.46 2226.14 1220.6 2225.86 1220.65 2225.37 1220.8 2225.04 1220.93 2224.24 1221.23 2224.12 1221.26 2223.66 1221.25 2223.33 1221.25 2223.15 1221.22 2222.54 1221.04L2221.82 1220.84 2220.86 1220.8C2220.08 1220.78 2219.83 1220.75 2219.56 1220.67 2218.94 1220.49 2218.04 1219.97 2217.8 1219.64L2217.7 1219.51 2217.15 1219.51 2216.59 1219.51 2216.66 1219.79C2216.76 1220.28 2216.79 1220.31 2217.59 1220.66 2217.92 1220.81 2218.13 1221.02 2218.44 1221.51 2218.59 1221.75 2218.78 1221.99 2218.85 1222.06 2218.93 1222.12 2219.31 1222.34 2219.7 1222.54 2220.98 1223.2 2221.18 1223.36 2221.43 1224.03 2221.59 1224.47 2221.6 1224.48 2222.05 1224.93 2222.5 1225.37 2222.51 1225.39 2222.49 1225.55 2222.43 1225.88 2222.22 1225.96 2221.59 1225.88 2221.36 1225.86 2220.95 1225.81 2220.69 1225.79 2219.8 1225.7 2219.46 1225.52 2218.18 1224.47 2217.79 1224.15 2217.27 1223.75 2217.02 1223.59 2216.27 1223.1 2216.06 1222.86 2215.74 1222.12 2215.62 1221.84 2215.43 1221.51 2215.23 1221.23 2214.76 1220.58 2214.63 1220.29 2214.63 1219.86L2214.63 1219.51 2214.08 1219.51C2213.41 1219.51 2211.73 1219.58 2210.58 1219.65L2209.72 1219.7 2209.98 1219.83C2210.37 1220.03 2210.65 1220.26 2211.33 1220.93 2212.2 1221.78 2212.47 1221.95 2213.82 1222.52 2215.17 1223.08 2215.5 1223.31 2216.69 1224.52 2217.66 1225.51 2218.3 1226.06 2218.86 1226.39 2219.4 1226.71 2219.5 1226.85 2219.38 1227.13 2219.29 1227.37 2219.19 1227.39 2217.72 1227.4 2215.88 1227.41 2215.73 1227.37 2214.47 1226.61 2213.78 1226.19 2213 1225.69 2211.38 1224.61 2210.88 1224.27 2210.24 1223.87 2209.97 1223.71 2208.78 1223.04 2208.58 1222.81 2208.29 1221.8 2208.13 1221.25 2208.1 1221.18 2207.8 1220.7 2207.68 1220.51 2207.55 1220.25 2207.51 1220.13L2207.45 1219.9 2207.09 1219.93C2205.65 1220.06 2200.96 1220.79 2200.85 1220.91 2200.84 1220.92 2200.9 1220.96 2200.98 1221 2201.19 1221.08 2201.47 1221.28 2201.96 1221.68 2202.43 1222.05 2202.83 1222.28 2203.14 1222.35 2203.26 1222.38 2203.75 1222.43 2204.23 1222.47 2204.72 1222.51 2205.2 1222.56 2205.31 1222.58 2205.68 1222.67 2206.12 1222.94 2206.69 1223.41 2207.52 1224.09 2207.96 1224.28 2209.27 1224.51 2209.62 1224.58 2210.01 1224.67 2210.14 1224.72 2210.64 1224.91 2211.04 1225.24 2211.56 1225.9 2211.9 1226.33 2212.12 1226.54 2212.89 1227.14 2213.43 1227.57 2213.54 1227.72 2213.49 1227.98 2213.45 1228.22 2213.18 1228.43 2212.64 1228.64 2212.1 1228.85 2211.93 1228.93 2211.51 1229.22 2210.9 1229.63 2210.77 1229.68 2210.31 1229.68 2209.89 1229.68 2209.89 1229.68 2209.26 1229.4 2208.66 1229.14 2208.59 1229.12 2207.9 1229.01 2206.76 1228.84 2206.48 1228.73 2205.72 1228.14 2205.16 1227.7 2205.05 1227.64 2204.3 1227.35 2203.48 1227.03 2203.33 1226.94 2202.81 1226.41 2202.35 1225.94 2202.34 1225.93 2201.56 1225.53 2201.12 1225.3 2200.62 1225.02 2200.43 1224.89 2200.02 1224.62 2199.53 1224.1 2199.22 1223.63 2198.95 1223.21 2198.53 1222.35 2198.36 1221.86 2198.29 1221.67 2198.23 1221.51 2198.22 1221.51 2198.15 1221.51 2196.03 1222.16 2195.37 1222.38 2193.89 1222.89 2192.14 1223.6 2191.1 1224.12L2190.68 1224.32 2190.9 1224.3C2192.94 1224.07 2194.66 1224.28 2196.06 1224.93 2196.53 1225.15 2196.97 1225.44 2197.48 1225.86 2197.7 1226.03 2197.97 1226.24 2198.09 1226.31 2198.45 1226.53 2199.02 1226.71 2199.7 1226.81 2201.64 1227.11 2202.1 1227.22 2202.52 1227.49 2202.64 1227.57 2203 1227.88 2203.31 1228.19 2203.97 1228.83 2204.53 1229.22 2205.24 1229.54 2205.51 1229.66 2205.77 1229.81 2205.82 1229.87 2206.02 1230.09 2205.9 1230.4 2205.58 1230.5 2205.49 1230.52 2205.21 1230.57 2204.96 1230.6 2204.01 1230.7 2203.23 1230.89 2202.77 1231.13 2202.64 1231.2 2202.37 1231.36 2202.19 1231.49 2201.58 1231.94 2201.16 1232.19 2200.7 1232.36 2200.4 1232.47 2200.32 1232.49 2199.8 1232.49L2199.23 1232.49 2198.25 1232.15C2196.57 1231.57 2196.39 1231.53 2195.01 1231.53 2193.95 1231.53 2193.48 1231.48 2192.98 1231.31 2192.42 1231.12 2192.19 1230.91 2191.74 1230.21 2191.42 1229.72 2191.24 1229.54 2190.64 1229.16 2190.21 1228.87 2189.89 1228.59 2189.67 1228.28 2189.22 1227.66 2188.76 1226.59 2188.59 1225.75L2188.53 1225.47 2188.01 1225.8C2184.8 1227.79 2182.37 1230.03 2180.35 1232.87 2179.78 1233.66 2179.78 1233.62 2180.29 1233.37 2181.12 1232.95 2181.79 1232.76 2182.52 1232.76 2182.96 1232.76 2183.07 1232.78 2183.77 1232.98 2184.74 1233.25 2185.06 1233.27 2186.03 1233.13 2186.42 1233.08 2186.96 1233.03 2187.24 1233.03 2188.12 1233.03 2188.61 1233.22 2189.83 1234.03 2190.69 1234.6 2190.97 1234.74 2191.95 1235.1 2192.83 1235.42 2193.19 1235.58 2193.77 1235.94 2194.54 1236.41 2196.3 1237.62 2196.38 1237.73 2196.48 1237.87 2196.47 1238.01 2196.34 1238.15L2196.24 1238.28 2195.63 1238.25C2195.3 1238.24 2194.6 1238.23 2194.08 1238.23 2192.93 1238.23 2192.85 1238.25 2191.84 1238.74 2191.02 1239.14 2190.72 1239.23 2190.24 1239.23 2189.77 1239.23 2189.42 1239.13 2188.78 1238.8 2187.31 1238.03 2187.5 1238.08 2185.72 1238.03 2183.49 1237.97 2183.2 1237.89 2182.24 1237.01 2181.99 1236.79 2181.69 1236.56 2181.57 1236.49 2181.45 1236.43 2181.05 1236.31 2180.69 1236.23 2179.91 1236.05 2179.6 1235.91 2179.21 1235.57L2178.93 1235.32 2178.79 1235.44C2178.51 1235.67 2177.59 1237.49 2176.9 1239.19 2175.93 1241.55 2175.58 1243.04 2175.54 1244.93 2175.53 1245.76 2175.52 1245.9 2175.45 1245.95 2175.33 1246.04 2175.19 1246.01 2175.09 1245.89ZM2190.9 1238.37C2191.04 1238.31 2191.38 1238.16 2191.65 1238.02 2191.92 1237.88 2192.26 1237.73 2192.41 1237.68 2192.84 1237.53 2193.5 1237.45 2194.15 1237.46 2194.47 1237.47 2194.74 1237.47 2194.74 1237.46 2194.74 1237.46 2194.42 1237.24 2194.03 1236.98 2193.16 1236.4 2192.59 1236.11 2191.69 1235.78 2190.75 1235.45 2190.24 1235.19 2189.43 1234.65 2189.06 1234.4 2188.65 1234.15 2188.53 1234.08 2187.89 1233.75 2187.36 1233.69 2186.32 1233.85 2185.87 1233.92 2185.44 1233.95 2185.07 1233.95 2184.52 1233.95 2184.46 1233.94 2183.77 1233.74 2182.69 1233.43 2182.22 1233.42 2181.38 1233.7 2180.83 1233.88 2179.56 1234.56 2179.46 1234.73 2179.41 1234.8 2179.92 1235.22 2180.16 1235.32 2180.28 1235.36 2180.61 1235.45 2180.89 1235.52 2181.86 1235.74 2182.07 1235.85 2182.76 1236.5 2183.5 1237.18 2183.67 1237.23 2185.66 1237.28 2187.44 1237.33 2187.63 1237.36 2188.48 1237.82 2189.86 1238.56 2190.2 1238.64 2190.9 1238.37ZM2178.92 1233.75C2179.09 1233.42 2179.39 1232.9 2179.58 1232.58 2179.78 1232.26 2180.12 1231.64 2180.34 1231.2 2181.13 1229.61 2181.28 1229.4 2182.28 1228.35 2182.65 1227.96 2183.03 1227.53 2183.11 1227.41 2183.19 1227.28 2183.36 1226.9 2183.49 1226.56 2183.78 1225.83 2183.87 1225.66 2184.43 1224.81 2185.27 1223.54 2185.32 1223.35 2185.01 1222.63 2184.69 1221.85 2184.66 1221.47 2184.87 1220.69 2185.02 1220.14 2185.03 1219.84 2184.93 1219.63 2184.89 1219.55 2184.66 1219.28 2184.42 1219.02 2184.18 1218.76 2183.92 1218.45 2183.85 1218.35 2183.66 1218.06 2183.4 1217.52 2183.29 1217.18L2183.19 1216.88 2182.9 1217.4C2182.3 1218.48 2181.75 1219.24 2181.01 1220.02 2180.3 1220.78 2180.22 1220.97 2179.98 1222.58 2179.84 1223.53 2179.7 1224.09 2179.53 1224.43 2179.45 1224.58 2179.19 1224.99 2178.94 1225.35 2178.69 1225.71 2178.44 1226.1 2178.38 1226.23 2178.19 1226.68 2178.18 1227.3 2178.33 1228.53 2178.36 1228.7 2178.37 1229.05 2178.38 1229.31 2178.38 1229.79 2178.38 1229.79 2178.05 1230.95 2177.85 1231.66 2177.9 1232.48 2178.19 1233.36 2178.33 1233.8 2178.55 1234.34 2178.59 1234.34 2178.61 1234.34 2178.76 1234.07 2178.92 1233.75ZM2200.18 1231.74C2200.62 1231.64 2201.05 1231.41 2201.89 1230.8 2202.34 1230.48 2202.86 1230.26 2203.49 1230.11 2203.8 1230.03 2204.11 1229.96 2204.18 1229.94 2204.3 1229.91 2204.29 1229.9 2203.9 1229.64 2203.65 1229.48 2203.28 1229.17 2202.94 1228.84 2202.38 1228.29 2202.1 1228.07 2201.86 1227.98 2201.5 1227.85 2200.91 1227.73 2200.04 1227.61 2198.55 1227.42 2197.9 1227.17 2197.02 1226.44 2196.15 1225.7 2195.26 1225.29 2194.04 1225.07 2193.61 1224.99 2193.36 1224.97 2192.5 1224.97 2191.29 1224.97 2190.48 1225.07 2189.47 1225.34L2189.29 1225.4 2189.31 1225.61C2189.37 1226.13 2189.85 1227.26 2190.24 1227.82 2190.44 1228.1 2190.69 1228.31 2191.23 1228.66 2191.68 1228.95 2191.99 1229.26 2192.29 1229.73 2192.61 1230.22 2192.77 1230.4 2193.03 1230.53 2193.39 1230.72 2193.82 1230.78 2194.8 1230.78 2196.29 1230.78 2196.85 1230.87 2198.27 1231.38 2199.49 1231.81 2199.68 1231.84 2200.18 1231.74ZM2210.6 1228.91C2210.7 1228.86 2210.9 1228.74 2211.04 1228.65 2211.48 1228.35 2211.82 1228.16 2212.15 1228.04 2212.64 1227.86 2212.64 1227.89 2212.21 1227.55 2211.68 1227.13 2211.32 1226.78 2210.92 1226.28 2210.59 1225.87 2210.29 1225.6 2210.02 1225.47 2209.85 1225.38 2209.6 1225.32 2208.99 1225.21 2208.07 1225.05 2207.27 1224.77 2206.83 1224.45 2206.69 1224.36 2206.41 1224.13 2206.19 1223.95 2205.48 1223.35 2205.27 1223.27 2204.21 1223.21 2203.81 1223.18 2203.4 1223.15 2203.29 1223.14 2202.73 1223.06 2202.17 1222.8 2201.65 1222.37 2200.72 1221.6 2200.42 1221.47 2199.44 1221.47L2198.99 1221.47 2199.08 1221.73C2199.36 1222.51 2199.89 1223.4 2200.32 1223.85 2200.67 1224.2 2200.98 1224.41 2201.91 1224.88 2202.75 1225.32 2202.88 1225.41 2203.33 1225.89 2203.72 1226.31 2203.85 1226.39 2204.59 1226.67 2205.36 1226.97 2205.53 1227.06 2206.13 1227.52 2206.41 1227.74 2206.7 1227.95 2206.78 1227.98 2207.02 1228.11 2207.38 1228.2 2208 1228.29 2208.73 1228.39 2208.95 1228.45 2209.41 1228.67 2209.8 1228.85 2210.2 1228.99 2210.33 1228.99 2210.38 1228.99 2210.5 1228.96 2210.6 1228.91ZM2217.89 1226.66C2217.89 1226.65 2217.75 1226.53 2217.58 1226.39 2217.4 1226.25 2216.8 1225.68 2216.25 1225.12 2214.97 1223.84 2214.89 1223.78 2213.39 1223.14 2211.98 1222.53 2211.69 1222.34 2210.77 1221.43 2210.1 1220.77 2209.96 1220.65 2209.63 1220.48 2209.31 1220.31 2208.29 1220.02 2208.29 1220.09 2208.29 1220.1 2208.37 1220.24 2208.46 1220.4 2208.74 1220.82 2208.84 1221.05 2208.99 1221.57 2209.23 1222.41 2209.28 1222.47 2210.37 1223.1 2210.64 1223.25 2211.33 1223.69 2211.91 1224.08 2214.99 1226.14 2215.66 1226.52 2216.29 1226.63 2216.52 1226.67 2217.89 1226.7 2217.89 1226.66ZM2221.1 1225.05C2221.1 1225.04 2221.06 1224.97 2221.01 1224.9 2220.96 1224.83 2220.86 1224.6 2220.79 1224.39 2220.61 1223.88 2220.48 1223.78 2219.43 1223.23 2218.96 1222.99 2218.5 1222.72 2218.4 1222.65 2218.29 1222.56 2218.08 1222.29 2217.88 1221.98L2217.54 1221.46 2217.03 1221.22C2216.24 1220.84 2216.1 1220.71 2215.99 1220.16 2215.96 1219.98 2215.89 1219.82 2215.84 1219.76 2215.71 1219.63 2215.45 1219.48 2215.41 1219.52 2215.39 1219.54 2215.37 1219.66 2215.36 1219.79 2215.34 1220.08 2215.41 1220.25 2215.83 1220.82 2216.13 1221.22 2216.26 1221.45 2216.45 1221.92 2216.65 1222.41 2216.89 1222.66 2217.48 1223.01 2217.74 1223.16 2218.08 1223.43 2218.77 1224 2219.48 1224.59 2219.99 1224.93 2220.27 1224.98 2220.4 1225.01 2220.54 1225.04 2220.59 1225.05 2220.73 1225.08 2221.1 1225.08 2221.1 1225.05ZM2189.5 1224.05C2189.93 1223.78 2190.3 1223.44 2190.8 1222.82 2190.99 1222.59 2191.3 1222.28 2191.48 1222.13 2192.19 1221.55 2192.27 1221.45 2192.56 1220.85 2192.89 1220.16 2193.08 1219.95 2193.77 1219.47 2194.06 1219.26 2194.37 1219.02 2194.45 1218.93 2194.66 1218.67 2194.83 1218.28 2195.11 1217.4 2195.32 1216.74 2195.44 1216.43 2195.82 1215.69 2196.6 1214.15 2196.66 1213.93 2196.55 1213.04 2196.44 1212.08 2196.54 1211.46 2196.95 1210.65 2197.09 1210.4 2197.19 1210.18 2197.18 1210.18 2197.15 1210.15 2196.2 1210.3 2196 1210.37 2195.77 1210.44 2195.54 1210.65 2195.03 1211.24 2194.87 1211.42 2194.44 1211.82 2194.07 1212.12 2192.67 1213.27 2192.55 1213.43 2191.84 1215.1 2191.36 1216.24 2191.24 1216.42 2190.41 1217.18 2189.74 1217.8 2189.64 1218.15 2189.87 1219.22 2190.01 1219.93 2190.01 1220.26 2189.84 1220.62 2189.77 1220.78 2189.62 1221.04 2189.52 1221.2 2189.3 1221.55 2189.1 1222.16 2189.04 1222.69 2188.99 1223.14 2188.97 1224.24 2189.02 1224.29 2189.06 1224.33 2189.03 1224.34 2189.5 1224.05ZM2224.54 1220.33C2225.2 1220.09 2225.18 1220.1 2224.91 1219.98 2224.78 1219.93 2224.47 1219.77 2224.23 1219.63 2223.52 1219.22 2223.42 1219.2 2221.77 1219.07 2221.34 1219.03 2221.07 1218.98 2220.76 1218.88 2220.25 1218.72 2219.84 1218.68 2219.51 1218.75 2219.18 1218.83 2218.42 1219.16 2218.42 1219.22 2218.42 1219.32 2219.17 1219.76 2219.6 1219.92 2219.85 1220 2220.03 1220.02 2220.85 1220.05 2221.74 1220.08 2221.86 1220.1 2222.32 1220.23 2223.42 1220.53 2223.43 1220.54 2223.77 1220.52 2224.01 1220.5 2224.22 1220.46 2224.54 1220.33ZM2198.66 1220.27C2198.73 1220.21 2199.38 1219.95 2200.28 1219.62 2201.29 1219.26 2201.75 1219.05 2202.14 1218.77 2202.3 1218.65 2202.84 1218.14 2203.33 1217.64 2203.94 1217.02 2204.48 1216.53 2204.98 1216.12 2206.11 1215.2 2206.24 1215.04 2206.56 1214.16 2206.86 1213.3 2206.93 1213.2 2207.81 1212.27 2208.67 1211.37 2208.74 1211.15 2208.54 1210.01 2208.45 1209.48 2208.44 1209.32 2208.47 1208.98 2208.53 1208.26 2208.56 1208.28 2208.1 1208.75 2207.35 1209.52 2206.72 1210.01 2205.91 1210.44 2205.43 1210.69 2205.07 1211.06 2204.58 1211.81 2204.06 1212.61 2203.68 1212.99 2203.03 1213.39 2202.42 1213.75 2202.31 1213.84 2202.1 1214.13 2201.9 1214.4 2201.81 1214.63 2201.51 1215.7 2201.13 1217.03 2200.93 1217.37 2200.18 1217.99 2199.64 1218.44 2199.38 1218.71 2199.17 1219.02 2198.8 1219.57 2198.42 1220.51 2198.66 1220.27ZM2210 1218.19C2211.51 1217.78 2211.78 1217.65 2212.37 1217.04 2212.78 1216.62 2213.09 1216.37 2214.19 1215.61 2214.93 1215.1 2215.22 1214.8 2215.52 1214.23 2215.89 1213.53 2216.02 1213.36 2216.58 1212.76 2217.08 1212.23 2217.12 1212.17 2217.42 1211.58 2217.59 1211.23 2217.72 1210.95 2217.71 1210.94 2217.7 1210.93 2217.54 1211.05 2217.35 1211.19 2216.76 1211.64 2216.5 1211.75 2215.75 1211.88 2215.16 1211.98 2214.86 1212.13 2214.41 1212.58 2214.21 1212.78 2213.81 1213.25 2213.53 1213.63 2212.89 1214.47 2212.36 1215.04 2211.98 1215.3 2211.82 1215.41 2211.43 1215.63 2211.11 1215.79 2210.24 1216.24 2209.89 1216.6 2209.04 1217.9 2208.8 1218.27 2208.59 1218.6 2208.58 1218.62 2208.56 1218.64 2208.71 1218.6 2208.91 1218.53 2209.11 1218.45 2209.6 1218.3 2210 1218.19ZM2216.37 1218.41C2217.14 1218.13 2217.55 1217.87 2218.11 1217.29 2218.45 1216.94 2218.61 1216.81 2218.95 1216.63 2219.57 1216.29 2219.7 1216.17 2220.05 1215.69 2220.22 1215.45 2220.6 1215.02 2220.88 1214.72 2221.43 1214.14 2221.56 1213.95 2221.71 1213.48 2221.76 1213.31 2221.81 1213.14 2221.83 1213.1 2221.84 1213.06 2221.66 1213.22 2221.44 1213.46 2221.16 1213.74 2220.83 1214.02 2220.39 1214.32 2219.66 1214.84 2219.4 1215.09 2218.95 1215.71 2218.36 1216.52 2218.1 1216.74 2217.21 1217.22 2217 1217.34 2216.72 1217.53 2216.59 1217.65 2216.31 1217.92 2215.89 1218.53 2215.98 1218.53 2216.02 1218.53 2216.19 1218.48 2216.37 1218.41Z" fill="#000000" fill-rule="evenodd" fill-opacity="1"/></g></g></svg>